<svg xmlns="http://www.w3.org/2000/svg" width="1560.22" height="1530.366" viewBox="0 0 1560.22 1530.366">
  <path id="a-logomark" d="M433.307,766.922c0-189.309,156.076-342.849,348.212-342.849,117.63,0,235.317-.9,352.877-1.485l-5.852,373.62c-25.033,209.507-185.567,311.843-346.063,311.861-170.65.015-341.272-115.637-349.174-341.144M1131.654,2C1014.5,4.261,898.4,2,781.519,2h-2.742C359.27,2.551,1.8,341.364,2.251,767.967c0,78.886,46.136,251.571,46.094,251.474,125.645,344.353,426.858,508.43,727.662,508.926h2.36c357.357-.452,713.57-231.7,773.977-665.723l6.125-191.06V2Z" transform="translate(-0.251)" fill="none" stroke="#42a4e5" stroke-miterlimit="10" stroke-width="4"/>
</svg>
