<svg id="black_logo" xmlns="http://www.w3.org/2000/svg" width="235" height="69.443" viewBox="0 0 235 69.443">
  <path id="Path_7" data-name="Path 7" d="M77.048,69.442l.12,0,.119,0Zm27.837,0,.12,0,.12,0ZM201.021,31.35a17.246,17.246,0,0,0,15.326,14.2c4.061.5,8.074,1.787,8.074,6.806a6.717,6.717,0,0,1-6.767,6.665,6.794,6.794,0,0,1-5.4-2.652h-11.46A17.378,17.378,0,0,0,235,52.357c0-11.217-8.786-16.154-18.653-17.367a6.767,6.767,0,0,1-4.356-3.64ZM134.777,50.464a8.642,8.642,0,1,1,8.644,8.508,8.577,8.577,0,0,1-8.644-8.508m-104.648,0a8.577,8.577,0,0,1,8.64-8.506c2.919,0,5.838-.022,8.755-.037l-.145,9.27a8.647,8.647,0,0,1-17.25-.727M19.277,0A19.134,19.134,0,0,0,0,18.981V69.443H10.591V49.426h8.934c-.017.345-.027.691-.027,1.039a19.294,19.294,0,0,0,38.4,2.375v16.6H68.483V50.016h.058a8.652,8.652,0,0,1,17.215-.5c-.006.13-.012.262-.015.392h-.008V69.443H96.32V50.016h.12c-.005-.166-.012-.333-.021-.5a8.653,8.653,0,0,1,17.208.392h0V69.443h10.639V52.57a19.312,19.312,0,0,0,38.262.382A19.3,19.3,0,0,0,200.9,51.018h.007V31.486h-10.59V50.893h-.05a8.647,8.647,0,0,1-17.257,0h-.051V31.486h-10.59V46.978a19.316,19.316,0,0,0-38.154,1.9A19.356,19.356,0,0,0,91.088,37.339,19.366,19.366,0,0,0,58.046,48.1V31.486H47.456c-2.907.056-5.787,0-8.687,0A19.355,19.355,0,0,0,23.413,39H10.591V18.981h.043a8.577,8.577,0,0,1,8.642-8.508h.009V0Z"/>
</svg>
