<svg id="Layer_1" data-name="Layer 1" xmlns="http://www.w3.org/2000/svg" viewBox="0 0 1920 1080"><path d="M0,0V1080H1920V0ZM1113.27,623.15c-23.31,0-42.57-17.13-45.52-39.29-2.94,22.16-22.2,39.29-45.52,39.29-23.63,0-43.1-17.59-45.63-40.2v40.2H951.25V576.61a20.61,20.61,0,0,0-41-.93c0,.39,0,.79,0,1.19H910v46.28H884.79V576.61h0c0-.31,0-.62,0-.93a20.61,20.61,0,0,0-41,1.19h-.14v46.28H818.47V583.59c-2.83,22.3-22.15,39.56-45.57,39.56-25.35,0-45.91-20.25-45.91-45.22,0-.83,0-1.65.07-2.47H705.77v47.69H680.54V502.93c0-25,20.57-45.22,45.92-45.22h0v25h0a20.43,20.43,0,0,0-20.59,20.27h-.1v47.69h30.55a46.11,46.11,0,0,1,36.58-17.9c6.91,0,13.77.13,20.7,0h25.23V572.3c2.82-22.3,22.14-39.58,45.56-39.58a46.15,46.15,0,0,1,33.16,13.94,46.11,46.11,0,0,1,33.15-13.94c24.07,0,43.81,18.23,45.76,41.43,1.95-23.2,21.69-41.43,45.76-41.43a45.75,45.75,0,0,1,45.14,36.91V532.72h25.22V579h.13a20.6,20.6,0,0,0,41.11,0h.12V532.72h25.24v46.53h0C1158.46,603.61,1138.17,623.15,1113.27,623.15Zm85.81,0A41.23,41.23,0,0,1,1158.9,592h27.3a16.15,16.15,0,0,0,12.87,6.32h0a16,16,0,0,0,16.13-15.88c0-12-9.56-15-19.24-16.21a41.1,41.1,0,0,1-36.51-33.83h26.14a16.1,16.1,0,0,0,10.37,8.68c23.51,2.88,44.44,14.65,44.44,41.37C1240.4,604.92,1221.89,623.14,1199.08,623.14Z" style="fill:#fff"/><path d="M1021.9,557a20.59,20.59,0,0,0-20.27,20.9h0a20.43,20.43,0,0,0,20.59,20.27h.31a20.59,20.59,0,0,0-.63-41.18Z" style="fill:#fff"/><path d="M752.32,577.94h0a20.6,20.6,0,0,0,41.1,1.73l.35-22.08c-7,0-13.91.09-20.86.09A20.43,20.43,0,0,0,752.32,577.94Z" style="fill:#fff"/></svg>