<svg xmlns="http://www.w3.org/2000/svg" width="16.132" height="17.813" viewBox="0 0 16.132 17.813">
  <path id="share_icon" d="M17.936,15.715a2.449,2.449,0,0,0-1.753.671L9.757,12.672a3.01,3.01,0,0,0,.09-.627,3.008,3.008,0,0,0-.09-.627l6.336-3.67a2.689,2.689,0,1,0-.854-1.969,2.992,2.992,0,0,0,.09.627l-6.336,3.67A2.7,2.7,0,0,0,7.151,9.36,2.66,2.66,0,0,0,4.5,12.045a2.705,2.705,0,0,0,4.539,1.969l6.381,3.715a2.245,2.245,0,0,0-.09.582,2.606,2.606,0,1,0,2.606-2.6Z" transform="translate(-4.5 -3.094)" fill="#ea7c56"/>
</svg>
