<svg xmlns="http://www.w3.org/2000/svg" width="20.337" height="20.332" viewBox="0 0 20.337 20.332">
  <path id="Icon_awesome-instagram" data-name="Icon awesome-instagram" d="M10.165,7.191A5.213,5.213,0,1,0,15.378,12.4,5.2,5.2,0,0,0,10.165,7.191Zm0,8.6A3.389,3.389,0,1,1,13.555,12.4a3.4,3.4,0,0,1-3.389,3.389Zm6.642-8.815a1.216,1.216,0,1,1-1.216-1.216A1.213,1.213,0,0,1,16.807,6.978ZM20.26,8.212a6.017,6.017,0,0,0-1.642-4.26,6.057,6.057,0,0,0-4.26-1.642c-1.679-.1-6.71-.1-8.389,0a6.048,6.048,0,0,0-4.26,1.638A6.037,6.037,0,0,0,.066,8.207c-.1,1.679-.1,6.71,0,8.389a6.017,6.017,0,0,0,1.642,4.26A6.064,6.064,0,0,0,5.969,22.5c1.679.1,6.71.1,8.389,0a6.017,6.017,0,0,0,4.26-1.642A6.057,6.057,0,0,0,20.26,16.6c.1-1.679.1-6.706,0-8.384ZM18.091,18.4a3.431,3.431,0,0,1-1.933,1.933c-1.338.531-4.514.408-5.993.408s-4.659.118-5.993-.408A3.431,3.431,0,0,1,2.239,18.4c-.531-1.338-.408-4.514-.408-5.993s-.118-4.659.408-5.993A3.431,3.431,0,0,1,4.172,4.478c1.338-.531,4.514-.408,5.993-.408s4.659-.118,5.993.408a3.431,3.431,0,0,1,1.933,1.933c.531,1.338.408,4.514.408,5.993S18.622,17.063,18.091,18.4Z" transform="translate(0.005 -2.238)" fill="#fff"/>
</svg>
