<svg xmlns="http://www.w3.org/2000/svg" width="12.607" height="12.606" viewBox="0 0 12.607 12.606">
  <path id="Icon_awesome-linkedin-in" data-name="Icon awesome-linkedin-in" d="M2.822,12.607H.208V4.19H2.822ZM1.514,3.042A1.521,1.521,0,1,1,3.027,1.514,1.526,1.526,0,0,1,1.514,3.042ZM12.6,12.607H10V8.51c0-.976-.02-2.229-1.359-2.229C7.278,6.281,7.07,7.342,7.07,8.44v4.167H4.459V4.19H6.966V5.339H7A2.746,2.746,0,0,1,9.475,3.979c2.645,0,3.131,1.742,3.131,4v4.623Z" transform="translate(0 -0.001)" fill="#fff"/>
</svg>
