<svg xmlns="http://www.w3.org/2000/svg" width="14.807" height="12.026" viewBox="0 0 14.807 12.026">
  <path id="Icon_awesome-twitter" data-name="Icon awesome-twitter" d="M13.285,6.378c.009.132.009.263.009.395A8.575,8.575,0,0,1,4.66,15.406,8.576,8.576,0,0,1,0,14.044a6.278,6.278,0,0,0,.733.038,6.077,6.077,0,0,0,3.767-1.3,3.04,3.04,0,0,1-2.837-2.1,3.827,3.827,0,0,0,.573.047,3.21,3.21,0,0,0,.8-.1A3.035,3.035,0,0,1,.6,7.646V7.609a3.056,3.056,0,0,0,1.372.385,3.039,3.039,0,0,1-.94-4.059A8.626,8.626,0,0,0,7.291,7.111a3.426,3.426,0,0,1-.075-.7,3.038,3.038,0,0,1,5.252-2.076,5.975,5.975,0,0,0,1.926-.733,3.026,3.026,0,0,1-1.334,1.672,6.083,6.083,0,0,0,1.747-.47,6.523,6.523,0,0,1-1.522,1.569Z" transform="translate(0 -3.381)" fill="#fff"/>
</svg>
