<svg xmlns="http://www.w3.org/2000/svg" width="22.4" height="15.75" viewBox="0 0 22.4 15.75">
  <path id="Icon_awesome-youtube" data-name="Icon awesome-youtube" d="M22.982,6.964A2.815,2.815,0,0,0,21,4.971C19.255,4.5,12.25,4.5,12.25,4.5s-7,0-8.752.471a2.815,2.815,0,0,0-1.98,1.993,29.526,29.526,0,0,0-.468,5.427,29.526,29.526,0,0,0,.468,5.427A2.773,2.773,0,0,0,3.5,19.779c1.747.471,8.752.471,8.752.471s7,0,8.752-.471a2.773,2.773,0,0,0,1.98-1.961,29.526,29.526,0,0,0,.468-5.427,29.526,29.526,0,0,0-.468-5.427ZM9.959,15.722V9.06l5.855,3.331L9.959,15.722Z" transform="translate(-1.05 -4.5)" fill="#fff"/>
</svg>
