<svg xmlns="http://www.w3.org/2000/svg" xmlns:xlink="http://www.w3.org/1999/xlink" width="282.655" height="281.889" viewBox="0 0 282.655 281.889">
  <defs>
    <linearGradient id="linear-gradient" x1="0.5" x2="0.5" y2="1.163" gradientUnits="objectBoundingBox">
      <stop offset="0" stop-color="#77d6ff"/>
      <stop offset="0.473" stop-color="#005f76"/>
      <stop offset="1" stop-color="#000600"/>
    </linearGradient>
    <radialGradient id="radial-gradient" cx="0.224" cy="0.174" r="0.685" gradientTransform="matrix(0.74, 0.673, -0.765, 0.84, 0.262, -0.121)" gradientUnits="objectBoundingBox">
      <stop offset="0" stop-color="#009ee3"/>
      <stop offset="0.473" stop-color="#005f76"/>
      <stop offset="1" stop-color="#000600"/>
    </radialGradient>
    <radialGradient id="radial-gradient-2" cx="0.519" cy="0.438" r="0.353" gradientTransform="matrix(0.949, -0.316, 0.235, 0.706, -0.076, 0.293)" xlink:href="#radial-gradient"/>
    <filter id="Path_58">
      <feOffset dy="10" input="SourceAlpha"/>
      <feGaussianBlur stdDeviation="13.5" result="blur"/>
      <feFlood flood-color="#fff" flood-opacity="0.224" result="color"/>
      <feComposite operator="out" in="SourceGraphic" in2="blur"/>
      <feComposite operator="in" in="color"/>
      <feComposite operator="in" in2="SourceGraphic"/>
    </filter>
    <linearGradient id="linear-gradient-2" x1="0.5" y1="0.17" x2="0.5" y2="1.654" gradientUnits="objectBoundingBox">
      <stop offset="0" stop-color="#009ee3" stop-opacity="0"/>
      <stop offset="1" stop-color="#0b748e"/>
    </linearGradient>
    <clipPath id="clip-path">
      <rect id="Rectangle_131" data-name="Rectangle 131" width="47.577" height="46.698" fill="url(#linear-gradient)"/>
    </clipPath>
  </defs>
  <g id="Group_187" data-name="Group 187" transform="translate(-238.925 -6579)" style="isolation: isolate">
    <ellipse id="Ellipse_39" data-name="Ellipse 39" cx="66.5" cy="16.5" rx="66.5" ry="16.5" transform="translate(315 6817)" opacity="0.768"/>
    <path id="Union_9" data-name="Union 9" d="M10338-3562v-19h140v19c0,8.836-31.34,16-70,16S10338-3553.164,10338-3562Z" transform="translate(-10027.001 10392.999)" fill="#000600"/>
    <g id="Ellipse_36" data-name="Ellipse 36" transform="translate(266 6579)" stroke="rgba(77,77,82,0.53)" stroke-width="1" opacity="0" fill="url(#radial-gradient)">
      <circle cx="116" cy="116" r="116" stroke="none"/>
      <circle cx="116" cy="116" r="115.5" fill="none"/>
    </g>
    <g id="Ellipse_37" data-name="Ellipse 37" transform="translate(312 6796)" stroke="rgba(172,172,172,0.09)" stroke-width="1" fill="url(#radial-gradient-2)">
      <ellipse cx="70" cy="16" rx="70" ry="16" stroke="none"/>
      <ellipse cx="70" cy="16" rx="69.5" ry="15.5" fill="none"/>
    </g>
    <g data-type="innerShadowGroup">
      <g id="Path_58-2" data-name="Path 58" transform="translate(266 6579)" fill="#009ee3">
        <path d="M116,0A116,116,0,1,1,0,116,116,116,0,0,1,116,0Z" stroke="none"/>
        <path d="M 116 1 C 108.1967315673828 1 100.398681640625 1.786087036132812 92.82244873046875 3.336410522460938 C 85.43923950195312 4.84722900390625 78.1768798828125 7.101593017578125 71.23712158203125 10.03684997558594 C 64.42311096191406 12.9189453125 57.85090637207031 16.4862060546875 51.703125 20.63958740234375 C 45.61343383789062 24.75370788574219 39.88694763183594 29.47850036621094 34.6827392578125 34.6827392578125 C 29.47850036621094 39.88694763183594 24.75370788574219 45.61343383789062 20.63958740234375 51.703125 C 16.4862060546875 57.85090637207031 12.9189453125 64.42311096191406 10.03684997558594 71.23712158203125 C 7.101593017578125 78.1768798828125 4.84722900390625 85.43923950195312 3.336410522460938 92.82244873046875 C 1.786087036132812 100.398681640625 1 108.1967315673828 1 116 C 1 123.8032684326172 1.786087036132812 131.601318359375 3.336410522460938 139.1775512695312 C 4.84722900390625 146.5607604980469 7.101593017578125 153.8231201171875 10.03684997558594 160.7628784179688 C 12.9189453125 167.5768737792969 16.4862060546875 174.1490936279297 20.63958740234375 180.296875 C 24.75370788574219 186.3865661621094 29.47850036621094 192.1130676269531 34.6827392578125 197.3172607421875 C 39.88694763183594 202.5214996337891 45.61343383789062 207.2462921142578 51.703125 211.3604125976562 C 57.85090637207031 215.5137939453125 64.42311096191406 219.0810546875 71.23712158203125 221.9631500244141 C 78.1768798828125 224.8984069824219 85.43923950195312 227.1527709960938 92.82244873046875 228.6635894775391 C 100.398681640625 230.2139129638672 108.1967315673828 231 116 231 C 123.8032684326172 231 131.601318359375 230.2139129638672 139.1775512695312 228.6635894775391 C 146.5607604980469 227.1527709960938 153.8231201171875 224.8984069824219 160.7628784179688 221.9631500244141 C 167.5768737792969 219.0810546875 174.1490936279297 215.5137939453125 180.296875 211.3604125976562 C 186.3865661621094 207.2462921142578 192.1130676269531 202.5214996337891 197.3172607421875 197.3172607421875 C 202.5214996337891 192.1130676269531 207.2462921142578 186.3865661621094 211.3604125976562 180.296875 C 215.5137939453125 174.1490936279297 219.0810546875 167.5768737792969 221.9631500244141 160.7628784179688 C 224.8984069824219 153.8231201171875 227.1527709960938 146.5607604980469 228.6635894775391 139.1775512695312 C 230.2139129638672 131.601318359375 231 123.8032684326172 231 116 C 231 108.1967315673828 230.2139129638672 100.398681640625 228.6635894775391 92.82244873046875 C 227.1527709960938 85.43923950195312 224.8984069824219 78.1768798828125 221.9631500244141 71.23712158203125 C 219.0810546875 64.42311096191406 215.5137939453125 57.85090637207031 211.3604125976562 51.703125 C 207.2462921142578 45.61343383789062 202.5214996337891 39.88694763183594 197.3172607421875 34.6827392578125 C 192.1130676269531 29.47850036621094 186.3865661621094 24.75370788574219 180.296875 20.63958740234375 C 174.1490936279297 16.4862060546875 167.5768737792969 12.9189453125 160.7628784179688 10.03684997558594 C 153.8231201171875 7.101593017578125 146.5607604980469 4.84722900390625 139.1775512695312 3.336410522460938 C 131.601318359375 1.786087036132812 123.8032684326172 1 116 1 M 116 0 C 180.0650329589844 0 232 51.93496704101562 232 116 C 232 180.0650329589844 180.0650329589844 232 116 232 C 51.93496704101562 232 0 180.0650329589844 0 116 C 0 51.93496704101562 51.93496704101562 0 116 0 Z" stroke="none"/>
      </g>
      <g transform="matrix(1, 0, 0, 1, 238.93, 6579)" filter="url(#Path_58)">
        <g id="Path_58-3" data-name="Path 58" transform="translate(27.07)" fill="#fff">
          <path d="M116,0A116,116,0,1,1,0,116,116,116,0,0,1,116,0Z" stroke="none"/>
          <path d="M 116 1 C 108.1967315673828 1 100.398681640625 1.786087036132812 92.82244873046875 3.336410522460938 C 85.43923950195312 4.84722900390625 78.1768798828125 7.101593017578125 71.23712158203125 10.03684997558594 C 64.42311096191406 12.9189453125 57.85090637207031 16.4862060546875 51.703125 20.63958740234375 C 45.61343383789062 24.75370788574219 39.88694763183594 29.47850036621094 34.6827392578125 34.6827392578125 C 29.47850036621094 39.88694763183594 24.75370788574219 45.61343383789062 20.63958740234375 51.703125 C 16.4862060546875 57.85090637207031 12.9189453125 64.42311096191406 10.03684997558594 71.23712158203125 C 7.101593017578125 78.1768798828125 4.84722900390625 85.43923950195312 3.336410522460938 92.82244873046875 C 1.786087036132812 100.398681640625 1 108.1967315673828 1 116 C 1 123.8032684326172 1.786087036132812 131.601318359375 3.336410522460938 139.1775512695312 C 4.84722900390625 146.5607604980469 7.101593017578125 153.8231201171875 10.03684997558594 160.7628784179688 C 12.9189453125 167.5768737792969 16.4862060546875 174.1490936279297 20.63958740234375 180.296875 C 24.75370788574219 186.3865661621094 29.47850036621094 192.1130676269531 34.6827392578125 197.3172607421875 C 39.88694763183594 202.5214996337891 45.61343383789062 207.2462921142578 51.703125 211.3604125976562 C 57.85090637207031 215.5137939453125 64.42311096191406 219.0810546875 71.23712158203125 221.9631500244141 C 78.1768798828125 224.8984069824219 85.43923950195312 227.1527709960938 92.82244873046875 228.6635894775391 C 100.398681640625 230.2139129638672 108.1967315673828 231 116 231 C 123.8032684326172 231 131.601318359375 230.2139129638672 139.1775512695312 228.6635894775391 C 146.5607604980469 227.1527709960938 153.8231201171875 224.8984069824219 160.7628784179688 221.9631500244141 C 167.5768737792969 219.0810546875 174.1490936279297 215.5137939453125 180.296875 211.3604125976562 C 186.3865661621094 207.2462921142578 192.1130676269531 202.5214996337891 197.3172607421875 197.3172607421875 C 202.5214996337891 192.1130676269531 207.2462921142578 186.3865661621094 211.3604125976562 180.296875 C 215.5137939453125 174.1490936279297 219.0810546875 167.5768737792969 221.9631500244141 160.7628784179688 C 224.8984069824219 153.8231201171875 227.1527709960938 146.5607604980469 228.6635894775391 139.1775512695312 C 230.2139129638672 131.601318359375 231 123.8032684326172 231 116 C 231 108.1967315673828 230.2139129638672 100.398681640625 228.6635894775391 92.82244873046875 C 227.1527709960938 85.43923950195312 224.8984069824219 78.1768798828125 221.9631500244141 71.23712158203125 C 219.0810546875 64.42311096191406 215.5137939453125 57.85090637207031 211.3604125976562 51.703125 C 207.2462921142578 45.61343383789062 202.5214996337891 39.88694763183594 197.3172607421875 34.6827392578125 C 192.1130676269531 29.47850036621094 186.3865661621094 24.75370788574219 180.296875 20.63958740234375 C 174.1490936279297 16.4862060546875 167.5768737792969 12.9189453125 160.7628784179688 10.03684997558594 C 153.8231201171875 7.101593017578125 146.5607604980469 4.84722900390625 139.1775512695312 3.336410522460938 C 131.601318359375 1.786087036132812 123.8032684326172 1 116 1 M 116 0 C 180.0650329589844 0 232 51.93496704101562 232 116 C 232 180.0650329589844 180.0650329589844 232 116 232 C 51.93496704101562 232 0 180.0650329589844 0 116 C 0 51.93496704101562 51.93496704101562 0 116 0 Z" stroke="none"/>
        </g>
      </g>
      <g id="Path_58-4" data-name="Path 58" transform="translate(266 6579)" fill="none">
        <path d="M116,0A116,116,0,1,1,0,116,116,116,0,0,1,116,0Z" stroke="none"/>
        <path d="M 116 1 C 108.1967315673828 1 100.398681640625 1.786087036132812 92.82244873046875 3.336410522460938 C 85.43923950195312 4.84722900390625 78.1768798828125 7.101593017578125 71.23712158203125 10.03684997558594 C 64.42311096191406 12.9189453125 57.85090637207031 16.4862060546875 51.703125 20.63958740234375 C 45.61343383789062 24.75370788574219 39.88694763183594 29.47850036621094 34.6827392578125 34.6827392578125 C 29.47850036621094 39.88694763183594 24.75370788574219 45.61343383789062 20.63958740234375 51.703125 C 16.4862060546875 57.85090637207031 12.9189453125 64.42311096191406 10.03684997558594 71.23712158203125 C 7.101593017578125 78.1768798828125 4.84722900390625 85.43923950195312 3.336410522460938 92.82244873046875 C 1.786087036132812 100.398681640625 1 108.1967315673828 1 116 C 1 123.8032684326172 1.786087036132812 131.601318359375 3.336410522460938 139.1775512695312 C 4.84722900390625 146.5607604980469 7.101593017578125 153.8231201171875 10.03684997558594 160.7628784179688 C 12.9189453125 167.5768737792969 16.4862060546875 174.1490936279297 20.63958740234375 180.296875 C 24.75370788574219 186.3865661621094 29.47850036621094 192.1130676269531 34.6827392578125 197.3172607421875 C 39.88694763183594 202.5214996337891 45.61343383789062 207.2462921142578 51.703125 211.3604125976562 C 57.85090637207031 215.5137939453125 64.42311096191406 219.0810546875 71.23712158203125 221.9631500244141 C 78.1768798828125 224.8984069824219 85.43923950195312 227.1527709960938 92.82244873046875 228.6635894775391 C 100.398681640625 230.2139129638672 108.1967315673828 231 116 231 C 123.8032684326172 231 131.601318359375 230.2139129638672 139.1775512695312 228.6635894775391 C 146.5607604980469 227.1527709960938 153.8231201171875 224.8984069824219 160.7628784179688 221.9631500244141 C 167.5768737792969 219.0810546875 174.1490936279297 215.5137939453125 180.296875 211.3604125976562 C 186.3865661621094 207.2462921142578 192.1130676269531 202.5214996337891 197.3172607421875 197.3172607421875 C 202.5214996337891 192.1130676269531 207.2462921142578 186.3865661621094 211.3604125976562 180.296875 C 215.5137939453125 174.1490936279297 219.0810546875 167.5768737792969 221.9631500244141 160.7628784179688 C 224.8984069824219 153.8231201171875 227.1527709960938 146.5607604980469 228.6635894775391 139.1775512695312 C 230.2139129638672 131.601318359375 231 123.8032684326172 231 116 C 231 108.1967315673828 230.2139129638672 100.398681640625 228.6635894775391 92.82244873046875 C 227.1527709960938 85.43923950195312 224.8984069824219 78.1768798828125 221.9631500244141 71.23712158203125 C 219.0810546875 64.42311096191406 215.5137939453125 57.85090637207031 211.3604125976562 51.703125 C 207.2462921142578 45.61343383789062 202.5214996337891 39.88694763183594 197.3172607421875 34.6827392578125 C 192.1130676269531 29.47850036621094 186.3865661621094 24.75370788574219 180.296875 20.63958740234375 C 174.1490936279297 16.4862060546875 167.5768737792969 12.9189453125 160.7628784179688 10.03684997558594 C 153.8231201171875 7.101593017578125 146.5607604980469 4.84722900390625 139.1775512695312 3.336410522460938 C 131.601318359375 1.786087036132812 123.8032684326172 1 116 1 M 116 0 C 180.0650329589844 0 232 51.93496704101562 232 116 C 232 180.0650329589844 180.0650329589844 232 116 232 C 51.93496704101562 232 0 180.0650329589844 0 116 C 0 51.93496704101562 51.93496704101562 0 116 0 Z" stroke="none" fill="rgba(147,147,147,0.72)"/>
      </g>
    </g>
    <path id="Path_56" data-name="Path 56" d="M467.177,6746.353,385.3,6812.391H299.67l-86.2-66.038Z" transform="translate(39.93)" fill="url(#linear-gradient-2)"/>
    <text id="_" data-name=" " transform="translate(382 6665)" fill="#fff" font-size="20" font-family="SegoeUI, Segoe UI"><tspan x="-2.739" y="0"> </tspan></text>
    <g id="Group_76" data-name="Group 76" transform="translate(358 6695)">
      <g id="Group_75" data-name="Group 75" transform="translate(0 0)" clip-path="url(#clip-path)">
        <path id="Path_37" data-name="Path 37" d="M44.239,27.663c.085-.373.172-.746.172-.746a6.243,6.243,0,0,1,.734-.633.988.988,0,0,0,1.268.077,3.006,3.006,0,0,0,.751-1.1,7.919,7.919,0,0,0,.413-1.131,6.422,6.422,0,0,0-2.24.67,1.088,1.088,0,0,0-.346,1.261c-.134.078-.3.176-.472.256,0,0,.049-.258.089-.52s.068-.522.068-.522.016-.116.038-.29.041-.41.057-.643.039-.47.05-.645.007-.294.007-.294a6.784,6.784,0,0,1,.63-.747,1,1,0,0,0,1.187-.055c.027-.022.053-.048.079-.073a3.228,3.228,0,0,0,.561-1.209,10.575,10.575,0,0,0,.227-1.183A6.393,6.393,0,0,0,45.4,21.16a1.076,1.076,0,0,0-.289.751,1.321,1.321,0,0,0,.155.545l-.163.14c-.081.063-.17.13-.257.192l0-.193-.022-.863s0-.1-.005-.242-.025-.331-.04-.522-.026-.382-.04-.524-.026-.239-.026-.239a6.725,6.725,0,0,1,.51-.829.989.989,0,0,0,1.235-.314,3.193,3.193,0,0,0,.375-1.279,9.857,9.857,0,0,0,.048-1.207,6.478,6.478,0,0,0-1.934,1.331,1.072,1.072,0,0,0-.174.785,1.317,1.317,0,0,0,.234.519c-.1.114-.234.258-.369.39,0,0-.027-.263-.079-.523s-.091-.519-.091-.519-.021-.116-.05-.289-.094-.4-.146-.632-.1-.458-.155-.625-.079-.283-.079-.283a8.5,8.5,0,0,1,.366-.9,1,1,0,0,0,1.112-.416c.017-.03.036-.062.052-.1a5.221,5.221,0,0,0,.007-2.522,6.546,6.546,0,0,0-1.686,1.632,1.031,1.031,0,0,0-.038.8,1.292,1.292,0,0,0,.309.475c-.033.055-.073.119-.115.184-.055.085-.115.173-.177.26l-.063-.183s-.07-.206-.137-.409c-.036-.1-.069-.2-.1-.283s-.046-.125-.046-.125-.139-.355-.281-.712c-.066-.181-.146-.353-.206-.485s-.1-.219-.1-.219a8.727,8.727,0,0,1,.227-.945.991.991,0,0,0,1.075-.681,2.955,2.955,0,0,0-.042-1.333c-.05-.249-.112-.492-.167-.7s-.124-.367-.161-.465a6.518,6.518,0,0,0-1.424,1.865,1.014,1.014,0,0,0,.085.8,1.265,1.265,0,0,0,.374.423c-.059.139-.137.318-.223.484,0,0-.119-.236-.24-.471-.062-.117-.12-.235-.165-.324s-.08-.143-.08-.143l-.47-.815-.5-.792a6.718,6.718,0,0,1,.063-.969,1,1,0,0,0,.928-.743c.007-.033.016-.069.022-.108A3.076,3.076,0,0,0,41.986,7.5a9.175,9.175,0,0,0-.515-1.092,6.458,6.458,0,0,0-1.1,2.073,1.022,1.022,0,0,0,.209.778,1.435,1.435,0,0,0,.445.351c-.017.064-.037.135-.055.212-.029.1-.059.2-.093.3l-.111-.157s-.03-.044-.079-.11a2.923,2.923,0,0,0-.174-.237c-.135-.17-.268-.342-.268-.342s-.059-.073-.147-.187-.21-.261-.336-.405-.251-.289-.345-.4-.156-.182-.156-.182a6.282,6.282,0,0,1-.08-.967A1,1,0,0,0,40,6.159,3.2,3.2,0,0,0,39.548,4.9a9.752,9.752,0,0,0-.67-1A6.4,6.4,0,0,0,38.1,6.113a1.053,1.053,0,0,0,.321.738,1.362,1.362,0,0,0,.493.28c-.013.154-.039.348-.071.535,0,0-.044-.048-.114-.119s-.157-.171-.254-.259l-.383-.365h0s-.086-.081-.211-.2-.31-.271-.488-.425-.352-.31-.5-.416l-.23-.183a8.637,8.637,0,0,1-.232-.946.993.993,0,0,0,.652-.99.77.77,0,0,0-.011-.108,2.983,2.983,0,0,0-.648-1.165c-.16-.2-.327-.385-.472-.54s-.276-.271-.355-.34a6.548,6.548,0,0,0-.406,2.308,1.018,1.018,0,0,0,.441.673,1.262,1.262,0,0,0,.529.2c0,.066.007.139.014.217.005.1.009.209.008.314l-.157-.112s-.177-.125-.35-.252c-.088-.062-.179-.125-.242-.172s-.115-.074-.115-.074L34.676,4.3c-.158-.108-.327-.2-.451-.271s-.207-.12-.207-.12a3.725,3.725,0,0,1-.2-.442c-.065-.164-.128-.327-.178-.457a.99.99,0,0,0,.471-1.184A2.935,2.935,0,0,0,33.3.769C33.114.6,32.924.432,32.755.3s-.315-.223-.4-.281a10.77,10.77,0,0,0-.132,1.091,3.522,3.522,0,0,0,.072,1.25,1,1,0,0,0,.538.6,1.3,1.3,0,0,0,.551.123c.036.148.073.34.1.522,0,0-.987-.331-1.225-.439-.144-.067-.564-.239-1-.415a1.035,1.035,0,0,0-.617-1.166,5.672,5.672,0,0,0-2.307.051,5.759,5.759,0,0,0,1.611,1.651,1.015,1.015,0,0,0,1.2-.323c.9.479,1.981,1.05,2.112,1.118.234.117.454.256.629.353l.285.164c-.174.076-.354.147-.492.2a1.166,1.166,0,0,0-.378-.381.878.878,0,0,0-.764-.032c-.565.2-1.387,1.35-1.587,1.659.078.01.212.028.376.044s.356.048.557.061a3.179,3.179,0,0,0,1.117-.061,1.124,1.124,0,0,0,.743-1.034,3.741,3.741,0,0,1,.932-.139l.323.208.036.022.008.006c.065.041.125.085.171.117s.1.071.1.071h0l.408.291s.257.18.5.378l.493.389c-.182.049-.372.1-.516.13a1.234,1.234,0,0,0-.221-.343.884.884,0,0,0-.2-.162.838.838,0,0,0-.277-.09.973.973,0,0,0-.369.015,5.217,5.217,0,0,0-1.817,1.4l.385.107c.167.051.366.1.576.148.194.038.389.076.57.1a1.519,1.519,0,0,0,.49-.006,1.117,1.117,0,0,0,.887-.909,3.949,3.949,0,0,1,.942,0l.289.251c.14.127.277.262.277.262l.238.228.242.233c.085.089.174.184.265.278.178.193.365.378.494.526l.213.248c-.185.018-.377.029-.522.038a1.07,1.07,0,0,0-.249-.474.857.857,0,0,0-.71-.272A5.348,5.348,0,0,0,35.675,9.2c.137.078.478.236.857.392a2.976,2.976,0,0,0,1.081.286,1.111,1.111,0,0,0,1.02-.752,4.547,4.547,0,0,1,.935.149l.472.6h0l.154.2.144.2s.181.258.361.514c.094.126.173.262.238.36l.106.166c-.185-.009-.378-.027-.524-.041a.943.943,0,0,0-.482-.781,1.049,1.049,0,0,0-.353-.1,5.375,5.375,0,0,0-2.162.78c.065.048.182.133.329.227s.321.2.506.312a3.006,3.006,0,0,0,.98.417,1.118,1.118,0,0,0,1.122-.6,4.159,4.159,0,0,1,.9.289l.379.663s.067.113.155.29.209.406.327.641.217.476.3.655.135.3.135.3c-.184-.041-.372-.087-.517-.124a1.134,1.134,0,0,0-.083-.531.876.876,0,0,0-.6-.474,5.223,5.223,0,0,0-2.259.413A6.258,6.258,0,0,0,40.835,14.9a1.125,1.125,0,0,0,1.208-.4,3.9,3.9,0,0,1,.836.432l.14.357c.038.087.067.179.09.249s.039.113.039.113v0l.16.478s.025.072.062.184.078.264.121.414l.17.606c-.178-.066-.353-.141-.492-.2a1.205,1.205,0,0,0,.021-.405.78.78,0,0,0-.237-.485.958.958,0,0,0-.308-.2,2.825,2.825,0,0,0-1.217-.091,9.218,9.218,0,0,0-1.077.161c.106.13.342.453.63.77.134.143.266.289.4.414a1.518,1.518,0,0,0,.4.283,1.118,1.118,0,0,0,1.255-.218,4.041,4.041,0,0,1,.762.559s.043.183.086.373c.023.089.038.185.049.255s.023.118.023.118h0s.023.132.057.323.083.452.111.712.066.52.09.716.027.327.027.327c-.16-.1-.317-.2-.444-.278a1.143,1.143,0,0,0,.076-.532.836.836,0,0,0-.416-.635,5.3,5.3,0,0,0-2.271-.312,7.832,7.832,0,0,0,.464.818,2.832,2.832,0,0,0,.705.871,1.112,1.112,0,0,0,1.266-.009,4.762,4.762,0,0,1,.665.673s.017.191.018.383.008.38.008.38l.013.5s-.008.312-.016.628c-.005.156-.007.312-.014.429s-.014.2-.014.2c-.143-.122-.287-.245-.4-.34a1,1,0,0,0,.072-.916,1.074,1.074,0,0,0-.236-.29,5.275,5.275,0,0,0-2.2-.643,7.7,7.7,0,0,0,.359.929,2.69,2.69,0,0,0,.545.914,1.123,1.123,0,0,0,1.259.181,4.358,4.358,0,0,1,.555.76s0,.048-.009.12-.01.166-.023.261c-.027.189-.05.378-.05.378s-.018.132-.043.328-.066.452-.114.708-.087.521-.134.708-.074.322-.074.322c-.124-.138-.245-.286-.34-.4a.917.917,0,0,0,.041-1.213,5.331,5.331,0,0,0-2.074-.991c.017.154.1.524.192.919a3.031,3.031,0,0,0,.4,1.04,1.112,1.112,0,0,0,1.21.384,4.457,4.457,0,0,1,.429.844l-.21.735s-.033.119-.07.241-.078.237-.078.237-.1.3-.2.594c-.047.151-.11.294-.153.405s-.072.181-.072.181c-.1-.156-.2-.32-.274-.448a.942.942,0,0,0,.345-.848.922.922,0,0,0-.125-.344,5.277,5.277,0,0,0-1.9-1.289c0,.083.005.223.014.4s.027.379.044.6a3.015,3.015,0,0,0,.241,1.037,1.117,1.117,0,0,0,1.139.556,4.309,4.309,0,0,1,.3.9l-.317.695-.037.081c-.024.052-.06.126-.106.213-.089.177-.209.409-.329.642s-.258.457-.352.629-.165.284-.165.284c-.076-.172-.147-.351-.2-.49a1.156,1.156,0,0,0,.382-.38.887.887,0,0,0,.031-.76c-.2-.567-1.352-1.386-1.662-1.586-.013.076-.027.21-.044.375s-.046.356-.061.559a3.209,3.209,0,0,0,.062,1.117,1.115,1.115,0,0,0,1.035.736,3.81,3.81,0,0,1,.14.935l-.206.322c-.052.08-.1.162-.147.219l-.068.1-.29.408h0s-.18.258-.378.5-.387.493-.387.493c-.052-.182-.1-.369-.131-.514a1.167,1.167,0,0,0,.341-.224.946.946,0,0,0,.162-.2.877.877,0,0,0,.092-.279,1,1,0,0,0-.018-.368A5.2,5.2,0,0,0,38.585,32.5c-.025.075-.058.216-.11.384s-.1.367-.144.576-.076.388-.1.57a1.618,1.618,0,0,0,.005.49,1.127,1.127,0,0,0,.915.885,4.013,4.013,0,0,1,0,.943l-.251.288c-.128.143-.263.279-.263.279h0l-.225.237c-.068.072-.148.156-.233.243l-.278.266c-.191.18-.377.366-.527.494s-.249.214-.249.214c-.019-.186-.029-.375-.037-.524a1.055,1.055,0,0,0,.474-.248.853.853,0,0,0,.27-.713,5.3,5.3,0,0,0-1.089-2.016,9.251,9.251,0,0,0-.39.853,2.979,2.979,0,0,0-.284,1.081,1.11,1.11,0,0,0,.754,1.022,4.691,4.691,0,0,1-.151.936l-.6.471-.2.156c-.1.073-.206.144-.206.144s-.255.183-.512.365c-.127.093-.262.171-.36.238l-.165.106c.008-.187.026-.377.039-.524a.905.905,0,0,0,.881-.837,5.369,5.369,0,0,0-.78-2.162c-.05.068-.132.183-.226.33s-.2.323-.314.506a3.07,3.07,0,0,0-.416.982,1.12,1.12,0,0,0,.6,1.12,4.107,4.107,0,0,1-.287.9l-.661.381h0s-.111.068-.287.153-.41.21-.64.332-.481.215-.657.3-.3.134-.3.134c.041-.184.086-.372.123-.516a1.148,1.148,0,0,0,.531-.086.869.869,0,0,0,.474-.6,5.246,5.246,0,0,0-.415-2.257c-.056.057-.147.158-.259.279s-.244.26-.374.418a3.083,3.083,0,0,0-.6.939,1.115,1.115,0,0,0,.4,1.206,3.807,3.807,0,0,1-.437.837l-.354.141c-.089.037-.179.066-.247.09l-.115.039h0l-.474.16-.185.063c-.112.039-.265.077-.415.121-.3.087-.6.169-.6.169.067-.177.139-.353.2-.493a1.161,1.161,0,0,0,.406.022.779.779,0,0,0,.486-.238,1,1,0,0,0,.2-.306,2.835,2.835,0,0,0,.089-1.218,9.357,9.357,0,0,0-.162-1.077c-.128.107-.45.344-.768.63-.145.134-.29.266-.415.4a1.611,1.611,0,0,0-.285.4,1.128,1.128,0,0,0,.22,1.254,3.959,3.959,0,0,1-.555.764l-.371.083c-.04.011-.077.018-.114.025-1.312.146-3.57.279-3.57.279s-2.528-.076-3.76-.239l-.118-.022c-.071-.013-.165-.026-.258-.05l-.372-.088a3.88,3.88,0,0,1-.554-.764,1.116,1.116,0,0,0,.221-1.251,1.546,1.546,0,0,0-.282-.4c-.122-.131-.268-.264-.412-.4-.318-.287-.638-.524-.768-.631a9.236,9.236,0,0,0-.165,1.076,2.864,2.864,0,0,0,.087,1.217,1.021,1.021,0,0,0,.2.309.776.776,0,0,0,.486.238,1.207,1.207,0,0,0,.408-.02c.056.138.131.317.2.494l-.6-.173c-.151-.044-.3-.083-.415-.122l-.185-.062-.475-.163-.065-.021c-.019-.006-.041-.015-.065-.021-.066-.023-.148-.052-.23-.086l-.356-.142a3.919,3.919,0,0,1-.432-.838,1.119,1.119,0,0,0,.406-1.208,3.16,3.16,0,0,0-.6-.94c-.128-.157-.261-.3-.373-.418s-.2-.223-.256-.278a5.254,5.254,0,0,0-.421,2.256.87.87,0,0,0,.471.6,1.167,1.167,0,0,0,.532.087c.037.143.081.331.121.516,0,0-.12-.056-.3-.137s-.419-.185-.654-.3-.466-.24-.639-.328-.29-.156-.29-.156l-.662-.383a4.2,4.2,0,0,1-.284-.9,1.115,1.115,0,0,0,.6-1.12,3,3,0,0,0-.412-.981c-.115-.183-.225-.359-.312-.507s-.175-.262-.225-.331a5.353,5.353,0,0,0-.787,2.162.91.91,0,0,0,.1.349.945.945,0,0,0,.777.489c.014.146.029.336.039.522l-.165-.106c-.1-.064-.233-.143-.36-.237-.255-.185-.51-.367-.51-.367s-.1-.072-.2-.144-.2-.155-.2-.155l-.6-.473a4.559,4.559,0,0,1-.146-.938,1.117,1.117,0,0,0,.757-1.017,3.074,3.074,0,0,0-.283-1.081c-.153-.38-.313-.722-.388-.859a5.3,5.3,0,0,0-1.095,2.016.847.847,0,0,0,.27.711,1,1,0,0,0,.472.251c-.008.149-.02.337-.04.524,0,0-.1-.087-.248-.216s-.332-.314-.522-.494l-.279-.268-.231-.242c-.137-.143-.225-.238-.225-.238h0s-.134-.136-.262-.279l-.25-.289a4.013,4.013,0,0,1,0-.943,1.12,1.12,0,0,0,.918-.883,1.645,1.645,0,0,0,.007-.49c-.024-.18-.062-.376-.1-.568-.043-.211-.1-.412-.143-.579s-.081-.307-.11-.387a5.3,5.3,0,0,0-1.409,1.812.944.944,0,0,0-.016.367.776.776,0,0,0,.089.278.946.946,0,0,0,.162.2,1.277,1.277,0,0,0,.341.224c-.034.144-.08.331-.132.512,0,0-.194-.245-.387-.492s-.377-.5-.377-.5l-.289-.41-.069-.1c-.043-.057-.1-.137-.145-.218l-.206-.32a3.828,3.828,0,0,1,.142-.936,1.118,1.118,0,0,0,1.038-.738,3.162,3.162,0,0,0,.063-1.115c-.013-.2-.037-.4-.06-.559s-.029-.3-.041-.376c-.31.2-1.46,1.016-1.668,1.582a.887.887,0,0,0,.032.763,1.143,1.143,0,0,0,.38.38c-.053.139-.128.319-.2.488l-.162-.283c-.1-.171-.235-.394-.351-.628s-.239-.467-.329-.645c-.046-.086-.079-.161-.1-.213s-.037-.083-.037-.083h0l-.313-.695a4.329,4.329,0,0,1,.3-.9A1.12,1.12,0,0,0,6.363,29.3a3.043,3.043,0,0,0,.242-1.034c.017-.216.032-.421.046-.594s.014-.315.014-.4a5.371,5.371,0,0,0-1.906,1.286.934.934,0,0,0-.126.346.944.944,0,0,0,.344.848c-.075.128-.174.291-.276.447l-.072-.184c-.041-.109-.1-.252-.151-.4-.1-.3-.2-.594-.2-.594s-.04-.119-.081-.238-.067-.239-.067-.239v0L3.922,27.8a4.565,4.565,0,0,1,.431-.844,1.115,1.115,0,0,0,1.212-.377,3.053,3.053,0,0,0,.407-1.042c.093-.393.174-.766.193-.919a5.317,5.317,0,0,0-2.077.986.919.919,0,0,0,.038,1.216c-.1.113-.215.259-.341.4,0,0-.027-.128-.073-.32s-.085-.451-.134-.709-.093-.516-.112-.712-.041-.325-.041-.325h0s-.024-.19-.049-.38c-.013-.1-.017-.19-.023-.261s-.009-.121-.009-.121a4.436,4.436,0,0,1,.557-.76,1.115,1.115,0,0,0,1.258-.173,2.7,2.7,0,0,0,.551-.912,7.749,7.749,0,0,0,.36-.931,5.346,5.346,0,0,0-2.2.638,1.1,1.1,0,0,0-.235.287.993.993,0,0,0,.07.918c-.113.1-.258.217-.4.337,0,0-.005-.077-.014-.194s-.007-.275-.009-.43c-.007-.317-.017-.631-.017-.631l.016-.5.008-.381c0-.193.021-.382.021-.382a4.29,4.29,0,0,1,.663-.672,1.115,1.115,0,0,0,1.267.01,2.8,2.8,0,0,0,.707-.866,7.875,7.875,0,0,0,.467-.817,5.31,5.31,0,0,0-2.274.305.836.836,0,0,0-.415.634,1.136,1.136,0,0,0,.073.532c-.125.079-.283.182-.444.278,0,0,.008-.132.026-.328s.061-.455.094-.716.077-.518.113-.711.056-.323.056-.323h0s.009-.045.022-.118.027-.164.052-.256c.044-.187.085-.373.085-.373a3.873,3.873,0,0,1,.765-.555,1.117,1.117,0,0,0,1.254.221,1.629,1.629,0,0,0,.4-.282c.135-.124.266-.267.4-.413.286-.318.522-.64.63-.769A9.091,9.091,0,0,0,6.173,15.9a2.85,2.85,0,0,0-1.217.087,1.066,1.066,0,0,0-.308.2.779.779,0,0,0-.238.486,1.248,1.248,0,0,0,.02.406c-.137.058-.318.132-.493.2,0,0,.087-.3.17-.6.045-.151.086-.3.122-.415l.065-.186.161-.475s.013-.039.033-.1c.007-.022.014-.044.022-.065a.4.4,0,0,1,.014-.038c.016-.052.037-.107.059-.16.071-.178.141-.357.141-.357a3.888,3.888,0,0,1,.837-.432,1.124,1.124,0,0,0,1.207.407A6.127,6.127,0,0,0,8.4,13.62,5.2,5.2,0,0,0,6.147,13.2a.872.872,0,0,0-.6.472,1.161,1.161,0,0,0-.085.531c-.145.037-.331.084-.517.121l.135-.3c.084-.178.186-.42.3-.656s.239-.466.329-.639.154-.29.154-.29l.383-.662a4.375,4.375,0,0,1,.9-.287,1.118,1.118,0,0,0,1.121.6,2.947,2.947,0,0,0,.978-.415c.187-.114.361-.224.508-.312s.265-.177.331-.225a5.363,5.363,0,0,0-2.161-.786.91.91,0,0,0-.837.882c-.149.013-.336.029-.524.04,0,0,.043-.068.107-.166s.144-.236.238-.359c.18-.258.362-.513.362-.513l.145-.2c.076-.1.156-.2.156-.2l.21-.266h0l.262-.333a4.59,4.59,0,0,1,.937-.149A1.112,1.112,0,0,0,10,9.842a3,3,0,0,0,1.08-.284,9.231,9.231,0,0,0,.857-.389A5.338,5.338,0,0,0,9.922,8.078a.844.844,0,0,0-.709.271,1,1,0,0,0-.25.471c-.147-.006-.338-.02-.525-.038,0,0,.088-.1.216-.247s.314-.333.494-.525c.091-.093.18-.19.266-.28s.173-.163.242-.23c.142-.136.239-.227.239-.227s.136-.134.277-.264.289-.249.289-.249a3.9,3.9,0,0,1,.943,0,1.119,1.119,0,0,0,.884.914,1.591,1.591,0,0,0,.492.007c.18-.023.375-.062.568-.1.21-.046.411-.1.576-.145s.309-.085.387-.11A5.265,5.265,0,0,0,12.5,5.924a1.017,1.017,0,0,0-.368-.017A.805.805,0,0,0,11.853,6a.929.929,0,0,0-.2.161,1.22,1.22,0,0,0-.223.341c-.145-.033-.333-.079-.513-.13l.492-.387c.243-.2.5-.378.5-.378l.411-.291.1-.068c.026-.02.056-.041.089-.063a.146.146,0,0,0,.02-.016c.016-.008.032-.021.048-.03a.246.246,0,0,0,.024-.015h0l.038-.023c.16-.1.323-.2.323-.2a3.865,3.865,0,0,1,.932.14,1.121,1.121,0,0,0,.739,1.036,3.231,3.231,0,0,0,1.118.063c.2-.014.395-.038.555-.059s.3-.032.376-.043c-.2-.312-1.015-1.459-1.582-1.663a.869.869,0,0,0-.763.03,1.116,1.116,0,0,0-.38.381c-.139-.056-.318-.128-.49-.2l.285-.162c.171-.1.395-.237.629-.353.133-.068,1.209-.634,2.115-1.113a1.012,1.012,0,0,0,1.194.326A5.679,5.679,0,0,0,19.3,1.627,5.751,5.751,0,0,0,17,1.572a1.04,1.04,0,0,0-.623,1.165c-.437.176-.855.344-1,.411-.24.111-1.228.438-1.228.438.028-.186.068-.376.1-.523A1.3,1.3,0,0,0,14.8,2.94a.985.985,0,0,0,.537-.6,3.5,3.5,0,0,0,.079-1.255c-.033-.465-.1-.906-.132-1.09-.087.057-.23.157-.4.283s-.359.292-.547.462A2.97,2.97,0,0,0,13.518,1.8a.99.99,0,0,0,.467,1.183c-.048.132-.112.294-.177.459a3.6,3.6,0,0,1-.2.44L13.4,4c-.124.073-.293.162-.453.268l-.644.414a1.224,1.224,0,0,0-.114.073c-.065.047-.155.109-.243.17l-.35.251-.157.113c0-.108,0-.214.008-.315,0-.078.009-.151.015-.217a1.253,1.253,0,0,0,.529-.2,1.019,1.019,0,0,0,.442-.671,6.549,6.549,0,0,0-.4-2.309c-.078.068-.207.187-.356.336s-.31.343-.471.542a2.96,2.96,0,0,0-.651,1.162c-.005.041-.01.073-.014.109a1,1,0,0,0,.652.992,8.431,8.431,0,0,1-.237.944s-.091.074-.232.18-.317.264-.493.417-.359.306-.488.426l-.214.2h0l-.382.365c-.1.088-.187.185-.255.258l-.114.118c-.033-.186-.057-.38-.07-.534a1.337,1.337,0,0,0,.494-.279,1.036,1.036,0,0,0,.322-.738A6.477,6.477,0,0,0,8.75,3.862a10.437,10.437,0,0,0-.672,1A3.12,3.12,0,0,0,7.63,6.121a.99.99,0,0,0,.809.982,6.418,6.418,0,0,1-.08.968s-.066.069-.157.179-.22.254-.345.4-.253.289-.337.4-.148.187-.148.187h0L7.1,9.579c-.068.084-.132.17-.18.238l-.077.109-.111.157c-.036-.1-.065-.2-.092-.3-.021-.077-.039-.15-.055-.212a1.535,1.535,0,0,0,.447-.35,1.046,1.046,0,0,0,.208-.781,6.4,6.4,0,0,0-1.093-2.07,8.853,8.853,0,0,0-.517,1.089,3.025,3.025,0,0,0-.26,1.309c.005.037.015.071.021.106a1,1,0,0,0,.926.746,7.026,7.026,0,0,1,.063.968l-.509.791-.471.814s-.031.06-.079.146-.106.2-.167.321l-.241.469c-.085-.164-.163-.342-.223-.482a1.283,1.283,0,0,0,.375-.422,1.014,1.014,0,0,0,.087-.8A6.572,6.572,0,0,0,3.737,9.553c-.038.1-.1.262-.162.465s-.118.448-.17.7a2.932,2.932,0,0,0-.043,1.334.991.991,0,0,0,1.072.684,8.976,8.976,0,0,1,.225.945s-.04.085-.1.218-.141.305-.209.485l-.281.711h0a1.325,1.325,0,0,0-.047.126c-.027.076-.061.18-.1.283l-.138.408-.062.182c-.064-.088-.122-.174-.179-.261-.041-.066-.078-.127-.114-.182a1.276,1.276,0,0,0,.309-.476,1.009,1.009,0,0,0-.033-.8,6.5,6.5,0,0,0-1.682-1.636,5.214,5.214,0,0,0,0,2.522c.017.032.036.066.053.094a.993.993,0,0,0,1.109.421,8.4,8.4,0,0,1,.365.9l-.08.281c-.052.171-.1.4-.157.629s-.1.459-.145.629-.053.29-.053.29h0l-.094.519c-.052.26-.079.522-.079.522-.135-.133-.271-.277-.37-.391a1.3,1.3,0,0,0,.238-.518,1.075,1.075,0,0,0-.174-.787A6.515,6.515,0,0,0,.71,16.518a11.322,11.322,0,0,0,.044,1.207,3.238,3.238,0,0,0,.375,1.283.992.992,0,0,0,1.232.317,5.9,5.9,0,0,1,.509.832s-.013.094-.027.236-.025.335-.042.525-.027.382-.04.523l-.005.24-.024.863.005.192c-.087-.061-.175-.128-.256-.193L2.316,22.4a1.29,1.29,0,0,0,.156-.546,1.073,1.073,0,0,0-.285-.75A6.481,6.481,0,0,0,.077,20.073,10.138,10.138,0,0,0,.3,21.258a3.236,3.236,0,0,0,.558,1.21.829.829,0,0,0,.077.073,1,1,0,0,0,1.188.057,6.578,6.578,0,0,1,.626.748s.006.119.008.295.031.409.049.643.03.47.056.644l.037.293h0s.031.261.065.525.089.519.089.519c-.169-.083-.338-.18-.471-.257a1.09,1.09,0,0,0-.345-1.261A6.371,6.371,0,0,0,0,24.07,8.594,8.594,0,0,0,.413,25.2a3.035,3.035,0,0,0,.746,1.1.993.993,0,0,0,1.272-.076,6.331,6.331,0,0,1,.732.637s.085.374.17.747c.04.187.085.372.126.511s.067.23.067.23.057.208.117.415c.028.1.059.208.087.284s.042.128.042.128l.063.182c-.1-.031-.207-.069-.3-.1l-.2-.083a1.466,1.466,0,0,0-.021-.567,1.038,1.038,0,0,0-.506-.627,6.423,6.423,0,0,0-2.319-.338,8.736,8.736,0,0,0,.577,1.06,3.021,3.021,0,0,0,.9.982.829.829,0,0,0,.1.046,1,1,0,0,0,1.147-.31,6.532,6.532,0,0,1,.817.52s.174.438.345.875c.089.218.191.429.261.592s.12.267.12.267h0s.026.063.067.149.1.209.164.325c.12.236.241.471.241.471-.185-.026-.375-.067-.525-.1a1.259,1.259,0,0,0-.12-.549.992.992,0,0,0-.6-.54,3.6,3.6,0,0,0-1.254-.08c-.465.033-.906.1-1.089.132.056.086.156.231.282.4s.293.36.462.551a2.992,2.992,0,0,0,1.052.819.991.991,0,0,0,1.184-.468c.132.048.294.111.457.177a3.625,3.625,0,0,1,.442.2l.118.208c.075.123.163.294.271.453l.411.645s.029.044.072.114.111.154.172.24l.25.354.112.158c-.106,0-.213,0-.314-.01L6.4,35.3a1.258,1.258,0,0,0-.2-.529,1.031,1.031,0,0,0-.67-.444,6.54,6.54,0,0,0-2.311.4c.07.076.188.207.337.356s.345.311.541.472a2.992,2.992,0,0,0,1.162.654c.037.005.072.007.108.013a1,1,0,0,0,.992-.65,8.826,8.826,0,0,1,.946.237s.071.093.181.231.26.318.413.5.307.356.424.487l.2.214v0l.362.383c.09.1.185.189.257.259s.12.114.12.114c-.187.032-.381.053-.535.068a1.322,1.322,0,0,0-.278-.5,1.063,1.063,0,0,0-.738-.323,6.475,6.475,0,0,0-2.217.773,9.739,9.739,0,0,0,1,.673,3.147,3.147,0,0,0,1.255.453.991.991,0,0,0,.983-.81,6.439,6.439,0,0,1,.969.083s.068.066.178.159l.4.347c.143.123.289.251.4.337l.188.149h0s.17.132.34.266c.084.068.171.133.238.178s.11.077.11.077l.157.115c-.1.031-.207.062-.305.09l-.212.054a1.422,1.422,0,0,0-.35-.447,1.033,1.033,0,0,0-.778-.21,6.373,6.373,0,0,0-2.075,1.09,9.014,9.014,0,0,0,1.09.518,3.01,3.01,0,0,0,1.307.262.769.769,0,0,0,.107-.021,1,1,0,0,0,.748-.922,6.847,6.847,0,0,1,.968-.063l.79.51.812.471h0l.143.081.324.166.47.24c-.167.086-.345.165-.484.224a1.285,1.285,0,0,0-.424-.376,1,1,0,0,0-.8-.087,6.571,6.571,0,0,0-1.869,1.415c.1.037.263.1.463.162s.449.119.7.171a2.949,2.949,0,0,0,1.333.046.988.988,0,0,0,.684-1.071,8.647,8.647,0,0,1,.949-.225l.218.1c.128.06.3.143.484.208.355.143.711.283.711.283a1.238,1.238,0,0,0,.125.048l.282.1.408.139.181.062c-.083.064-.173.123-.259.177l-.184.115a1.25,1.25,0,0,0-.472-.308,1.019,1.019,0,0,0-.8.033,6.535,6.535,0,0,0-1.637,1.678,5.212,5.212,0,0,0,2.522,0,.826.826,0,0,0,.1-.053,1,1,0,0,0,.422-1.109,9.041,9.041,0,0,1,.9-.362l.285.079c.168.052.4.1.625.157s.46.109.632.147l.288.051a18.213,18.213,0,0,0,2.378.276l.167.049a5.643,5.643,0,0,0-3.589,2.694l1.211,0c.346-1.024,2.107-1.854,3.4-2.342,1.293.49,3.053,1.327,3.4,2.349l1.21,0a5.632,5.632,0,0,0-3.583-2.7l.075-.023a19.634,19.634,0,0,0,3.247-.425v0l.27-.061c.23-.053.459-.1.627-.158s.284-.078.284-.078a8.418,8.418,0,0,1,.9.367.992.992,0,0,0,.418,1.108l.093.052a5.228,5.228,0,0,0,2.525,0,6.555,6.555,0,0,0-1.633-1.681,1.037,1.037,0,0,0-.8-.036,1.28,1.28,0,0,0-.472.308c-.055-.033-.118-.072-.185-.116-.085-.053-.172-.116-.259-.177L30,43.012l.411-.138.28-.094a1.339,1.339,0,0,0,.126-.049s.356-.138.712-.279c.18-.068.353-.148.483-.208s.219-.1.219-.1a9.412,9.412,0,0,1,.947.225.989.989,0,0,0,.682,1.074,2.955,2.955,0,0,0,1.333-.042c.249-.051.492-.111.7-.169s.366-.124.463-.16a6.49,6.49,0,0,0-1.866-1.42.987.987,0,0,0-.8.085,1.28,1.28,0,0,0-.424.373c-.139-.058-.315-.136-.481-.221l.469-.241c.119-.06.235-.12.324-.165s.144-.081.144-.081l.813-.471c.4-.252.792-.506.792-.506a6.842,6.842,0,0,1,.968.062,1,1,0,0,0,.745.928.8.8,0,0,0,.107.021,3.042,3.042,0,0,0,1.308-.26,8.938,8.938,0,0,0,1.092-.515,6.386,6.386,0,0,0-2.073-1.095,1.032,1.032,0,0,0-.779.209,1.426,1.426,0,0,0-.35.447l-.212-.059c-.1-.026-.2-.056-.305-.091l.158-.111.11-.078c.067-.046.155-.109.238-.179.169-.132.338-.267.338-.267l.188-.146c.115-.085.261-.211.4-.337s.289-.251.4-.345.18-.159.18-.158a6.391,6.391,0,0,1,.966-.08.993.993,0,0,0,.982.812,3.159,3.159,0,0,0,1.256-.447,10.735,10.735,0,0,0,1-.672,6.377,6.377,0,0,0-2.214-.78,1.057,1.057,0,0,0-.736.322,1.323,1.323,0,0,0-.28.5c-.153-.015-.35-.037-.534-.07l.118-.116c.073-.068.168-.157.258-.253.181-.192.366-.383.366-.383s.08-.085.2-.21.271-.311.424-.488.31-.354.416-.5.182-.231.182-.231a8.886,8.886,0,0,1,.946-.237.99.99,0,0,0,.991.653c.033,0,.069-.006.108-.013a2.946,2.946,0,0,0,1.164-.651c.2-.158.384-.326.54-.469s.271-.279.338-.358a6.638,6.638,0,0,0-2.309-.4,1.026,1.026,0,0,0-.671.442,1.25,1.25,0,0,0-.2.528l-.216.016c-.1.006-.21.009-.317.009l.114-.157s.124-.177.25-.351l.171-.242c.044-.068.074-.113.074-.113v0l.414-.642c.107-.159.2-.331.267-.452l.121-.208a3.664,3.664,0,0,1,.443-.2c.162-.064.325-.127.458-.178a.984.984,0,0,0,1.18.469,2.933,2.933,0,0,0,1.056-.816c.169-.188.334-.376.463-.545s.226-.315.283-.4c-.184-.032-.625-.1-1.09-.13a3.516,3.516,0,0,0-1.254.074,1,1,0,0,0-.6.537,1.286,1.286,0,0,0-.122.552c-.148.034-.34.074-.523.1,0,0,.121-.236.242-.469.06-.119.12-.235.162-.325s.069-.15.069-.15v0l.122-.268c.071-.161.174-.373.261-.59.173-.44.347-.875.347-.875a6.563,6.563,0,0,1,.82-.518,1,1,0,0,0,1.246.268,3.077,3.077,0,0,0,.907-.981,8.567,8.567,0,0,0,.578-1.058,6.412,6.412,0,0,0-2.319.333,1.024,1.024,0,0,0-.509.628,1.451,1.451,0,0,0-.02.565l-.206.08c-.1.036-.2.072-.3.1l.063-.183s.016-.048.044-.126.059-.18.086-.284c.058-.208.12-.416.12-.416h0s.025-.092.065-.23.09-.324.131-.511" transform="translate(0 0)" fill="url(#linear-gradient)"/>
      </g>
    </g>
  </g>
</svg>
