<svg xmlns="http://www.w3.org/2000/svg" xmlns:xlink="http://www.w3.org/1999/xlink" width="324.558" height="318.558" viewBox="0 0 324.558 318.558">
  <defs>
    <linearGradient id="linear-gradient" x1="0.5" y1="0.074" x2="0.483" y2="1" gradientUnits="objectBoundingBox">
      <stop offset="0" stop-color="#04202b"/>
      <stop offset="0.473" stop-color="#7ed1f1"/>
      <stop offset="1" stop-color="#000600"/>
    </linearGradient>
    <clipPath id="clip-path">
      <rect id="Rectangle_131" data-name="Rectangle 131" width="324.558" height="318.558" fill="url(#linear-gradient)"/>
    </clipPath>
  </defs>
  <g id="award_leaf_left" transform="translate(0 0)">
    <g id="Group_75" data-name="Group 75" transform="translate(0 0)" clip-path="url(#clip-path)">
      <path id="Path_37" data-name="Path 37" d="M301.783,188.71c.577-2.544,1.176-5.088,1.176-5.088a42.59,42.59,0,0,1,5.01-4.319c1.425,1.14,4.746,3.314,8.651.527,1.881-1.276,3.6-4.376,5.124-7.518a54.027,54.027,0,0,0,2.815-7.718c-2.523.371-12.008,1.945-15.279,4.568-3.791,2.972-2.879,6.848-2.359,8.6-.912.534-2.074,1.2-3.221,1.746,0,0,.335-1.76.606-3.549.235-1.782.463-3.563.463-3.563s.107-.791.257-1.981c.178-1.19.278-2.793.392-4.39.135-1.611.264-3.207.342-4.4.036-1.211.05-2,.05-2a46.278,46.278,0,0,1,4.3-5.1c1.5.848,4.817,2.323,8.1-.378.185-.15.363-.328.542-.5,1.518-1.568,2.858-4.9,3.827-8.245a72.133,72.133,0,0,0,1.546-8.067c-2.444.763-11.566,3.862-14.4,7.005a7.337,7.337,0,0,0-1.974,5.124,9.01,9.01,0,0,0,1.055,3.72c-.335.292-.713.613-1.112.955-.556.428-1.162.884-1.753,1.311l.028-1.318-.15-5.886s0-.656-.036-1.653c-.071-.955-.171-2.259-.271-3.563s-.178-2.608-.271-3.577-.178-1.632-.178-1.632a45.875,45.875,0,0,1,3.478-5.658c1.71.663,5.53,1.71,8.423-2.145,1.3-1.767,2.081-5.266,2.558-8.723a67.238,67.238,0,0,0,.328-8.231c-2.3,1.133-10.846,5.558-13.191,9.079a7.314,7.314,0,0,0-1.19,5.352,8.986,8.986,0,0,0,1.6,3.542c-.656.777-1.6,1.76-2.516,2.658,0,0-.185-1.8-.542-3.57-.314-1.767-.62-3.542-.62-3.542s-.142-.791-.342-1.974c-.285-1.176-.641-2.729-1-4.311-.356-1.546-.7-3.121-1.055-4.261-.335-1.169-.542-1.931-.542-1.931a57.955,57.955,0,0,1,2.494-6.171c1.732.349,5.387.7,7.582-2.836.114-.207.242-.42.356-.663,2.067-3.905.791-14.459.05-17.2-2.081,1.5-9.7,7.226-11.5,11.131a7.031,7.031,0,0,0-.257,5.466,8.814,8.814,0,0,0,2.109,3.242c-.228.378-.5.812-.784,1.254-.378.577-.784,1.183-1.2,1.774l-.428-1.247s-.478-1.4-.934-2.793c-.242-.691-.47-1.39-.656-1.931-.171-.52-.314-.855-.314-.855s-.948-2.423-1.917-4.86c-.449-1.233-1-2.409-1.4-3.307s-.663-1.5-.663-1.5a59.532,59.532,0,0,1,1.546-6.449c1.86.071,5.851-.128,7.333-4.646.656-2.081.47-5.722-.285-9.093-.342-1.7-.763-3.356-1.14-4.753-.442-1.382-.848-2.5-1.1-3.171-1.853,1.81-8.495,8.566-9.713,12.72a6.917,6.917,0,0,0,.577,5.437,8.629,8.629,0,0,0,2.551,2.886c-.4.948-.934,2.166-1.518,3.3,0,0-.812-1.611-1.639-3.214-.42-.8-.82-1.6-1.126-2.209-.335-.584-.549-.976-.549-.976l-3.207-5.558c-1.725-2.7-3.442-5.4-3.442-5.4a45.827,45.827,0,0,1,.428-6.613c1.732-.207,5.288-.983,6.328-5.067.05-.228.107-.47.15-.734.385-2.216-.584-5.623-1.753-8.929a62.591,62.591,0,0,0-3.513-7.447c-1.511,2.074-7.055,9.941-7.49,14.138a6.974,6.974,0,0,0,1.425,5.309,9.79,9.79,0,0,0,3.036,2.394c-.114.435-.249.919-.378,1.447-.2.684-.4,1.4-.634,2.074l-.755-1.069s-.207-.3-.542-.748a19.94,19.94,0,0,0-1.19-1.618c-.919-1.162-1.831-2.33-1.831-2.33s-.4-.5-1-1.276-1.432-1.782-2.295-2.765-1.71-1.974-2.352-2.708-1.062-1.24-1.062-1.24a42.852,42.852,0,0,1-.549-6.6c1.767-.477,5.48-1.888,5.558-6.692.021-2.223-1.425-5.466-3.057-8.566a66.529,66.529,0,0,0-4.568-6.841c-1.2,2.266-5.53,10.86-5.338,15.093a7.182,7.182,0,0,0,2.188,5.031,9.289,9.289,0,0,0,3.364,1.91c-.086,1.048-.264,2.373-.485,3.649,0,0-.3-.328-.777-.812s-1.069-1.169-1.732-1.767l-2.615-2.487h.007s-.584-.556-1.44-1.4c-.891-.812-2.116-1.846-3.328-2.9-1.211-1.033-2.4-2.116-3.378-2.836-.934-.748-1.568-1.247-1.568-1.247a58.921,58.921,0,0,1-1.582-6.456c1.6-.748,4.753-2.58,4.447-6.756a5.249,5.249,0,0,0-.078-.734c-.378-2.145-2.209-5.295-4.418-7.946-1.09-1.347-2.231-2.63-3.221-3.684-1.012-1.048-1.881-1.846-2.423-2.316-.8,2.423-3.6,11.516-2.772,15.742a6.944,6.944,0,0,0,3.007,4.589,8.611,8.611,0,0,0,3.606,1.375c.021.449.05.948.093,1.482.036.684.064,1.425.057,2.145l-1.069-.763s-1.2-.855-2.387-1.717c-.6-.42-1.219-.855-1.653-1.176-.463-.306-.784-.506-.784-.506s-2.195-1.4-4.39-2.815c-1.076-.734-2.231-1.347-3.079-1.846s-1.411-.82-1.411-.82a25.412,25.412,0,0,1-1.333-3.014c-.442-1.119-.877-2.231-1.211-3.114,1.546-1.026,4.668-3.52,3.214-8.074-.67-2.081-2.972-4.889-5.558-7.2C225.9,4.076,224.6,2.95,223.444,2.059c-1.162-.841-2.152-1.518-2.736-1.917a73.473,73.473,0,0,0-.9,7.44c-.221,3.15-.235,6.521.492,8.53a6.826,6.826,0,0,0,3.67,4.1,8.9,8.9,0,0,0,3.756.841c.242,1.012.5,2.316.684,3.563,0,0-6.734-2.259-8.359-2.993-.983-.456-3.848-1.632-6.834-2.829a7.063,7.063,0,0,0-4.212-7.953c-3.9-1.625-13.248-.143-15.735.349,1.44,2.074,7.091,9.692,10.989,11.259a6.922,6.922,0,0,0,8.16-2.2c6.171,3.271,13.511,7.162,14.409,7.625,1.6.8,3.1,1.746,4.29,2.409,1.162.663,1.945,1.119,1.945,1.119-1.19.52-2.416,1-3.356,1.375a7.952,7.952,0,0,0-2.58-2.6,5.989,5.989,0,0,0-5.209-.221c-3.855,1.39-9.464,9.207-10.825,11.316.534.071,1.447.192,2.565.3,1.1.164,2.43.328,3.8.413,2.794.135,5.722.3,7.618-.413a7.669,7.669,0,0,0,5.067-7.055,25.517,25.517,0,0,1,6.357-.948s1.1.705,2.2,1.418l.242.15.057.043c.442.278.855.577,1.169.8.406.285.67.485.67.485h.007l2.786,1.988s1.753,1.226,3.421,2.58c1.675,1.318,3.364,2.651,3.364,2.651-1.24.335-2.537.648-3.52.884a8.418,8.418,0,0,0-1.511-2.337,6.034,6.034,0,0,0-1.368-1.1,5.715,5.715,0,0,0-1.888-.613,6.639,6.639,0,0,0-2.516.1c-4.048.812-10.725,7.675-12.393,9.578.534.15,1.468.406,2.63.727,1.14.349,2.494.713,3.927,1.012,1.325.257,2.651.52,3.891.67a10.364,10.364,0,0,0,3.342-.043,7.621,7.621,0,0,0,6.05-6.2,26.936,26.936,0,0,1,6.428,0s.983.848,1.974,1.71c.955.869,1.888,1.789,1.888,1.789l1.625,1.554c.477.456,1.04,1,1.653,1.589.577.606,1.19,1.254,1.81,1.9,1.212,1.318,2.487,2.58,3.371,3.592s1.454,1.689,1.454,1.689c-1.261.121-2.573.2-3.563.257a7.3,7.3,0,0,0-1.7-3.235,5.844,5.844,0,0,0-4.846-1.853c-4.19.221-11.844,5.822-13.8,7.4.934.534,3.264,1.611,5.844,2.672a20.3,20.3,0,0,0,7.376,1.953,7.578,7.578,0,0,0,6.955-5.131,31.02,31.02,0,0,1,6.378,1.019l3.221,4.112h.014s.527.684,1.048,1.361l.983,1.383s1.233,1.76,2.466,3.506c.641.862,1.183,1.789,1.625,2.459s.72,1.133.72,1.133c-1.261-.064-2.58-.185-3.577-.278a6.436,6.436,0,0,0-3.285-5.33,7.153,7.153,0,0,0-2.409-.691c-4.183-.378-12.585,4.033-14.751,5.323.442.328,1.24.905,2.245,1.546,1,.62,2.188,1.361,3.449,2.131a20.506,20.506,0,0,0,6.684,2.843A7.626,7.626,0,0,0,276,78.688a28.369,28.369,0,0,1,6.157,1.974l2.587,4.525s.456.77,1.055,1.981c.606,1.183,1.425,2.772,2.231,4.376s1.482,3.25,2.052,4.468.919,2.045.919,2.045c-1.254-.278-2.537-.591-3.527-.848a7.734,7.734,0,0,0-.563-3.62,5.975,5.975,0,0,0-4.083-3.235c-3.962-1.133-13.055,1.888-15.407,2.815,1.632,1.418,7.3,7.269,11.145,8.452a7.673,7.673,0,0,0,8.238-2.744,26.623,26.623,0,0,1,5.7,2.95l.955,2.437c.257.591.456,1.219.613,1.7.143.456.264.77.264.77v-.014l1.09,3.264s.171.492.42,1.254.534,1.8.827,2.822c.584,2.074,1.162,4.133,1.162,4.133-1.211-.449-2.409-.962-3.356-1.368a8.22,8.22,0,0,0,.143-2.765A5.323,5.323,0,0,0,293,110.749a6.535,6.535,0,0,0-2.1-1.382c-1.9-.834-5.167-.9-8.3-.62a62.887,62.887,0,0,0-7.347,1.1c.72.884,2.33,3.093,4.3,5.252.912.976,1.817,1.974,2.722,2.822a10.354,10.354,0,0,0,2.736,1.931,7.628,7.628,0,0,0,8.559-1.489,27.567,27.567,0,0,1,5.2,3.813s.292,1.247.584,2.544c.157.606.257,1.261.335,1.739s.157.805.157.805h-.014s.157.9.392,2.2.563,3.086.755,4.86c.228,1.782.449,3.549.613,4.881.135,1.333.185,2.23.185,2.23-1.09-.663-2.159-1.34-3.029-1.9a7.8,7.8,0,0,0,.52-3.627,5.7,5.7,0,0,0-2.836-4.333c-3.506-2.295-12.984-2.266-15.492-2.131a53.426,53.426,0,0,0,3.164,5.58c1.382,2.373,3.128,4.81,4.81,5.943a7.585,7.585,0,0,0,8.637-.064,32.488,32.488,0,0,1,4.539,4.589s.114,1.3.121,2.615c.036,1.3.057,2.594.057,2.594l.085,3.435s-.057,2.131-.107,4.283c-.036,1.062-.05,2.131-.093,2.929s-.093,1.354-.093,1.354c-.976-.834-1.96-1.675-2.736-2.316a6.811,6.811,0,0,0,.492-6.25,7.327,7.327,0,0,0-1.611-1.981c-3.128-2.786-12.492-4.162-14.994-4.39a52.523,52.523,0,0,0,2.451,6.335c1,2.437,2.28,4.946,3.72,6.235a7.661,7.661,0,0,0,8.587,1.233,29.733,29.733,0,0,1,3.784,5.188s-.029.328-.064.82-.071,1.133-.157,1.782c-.185,1.29-.342,2.58-.342,2.58s-.121.9-.292,2.238c-.128,1.318-.449,3.086-.777,4.832-.342,1.767-.591,3.556-.912,4.832-.306,1.318-.506,2.195-.506,2.195-.848-.941-1.675-1.953-2.316-2.744a6.258,6.258,0,0,0,.278-8.274c-2.672-3.257-11.708-6.136-14.146-6.763.114,1.048.663,3.577,1.311,6.271a20.673,20.673,0,0,0,2.758,7.1,7.587,7.587,0,0,0,8.252,2.622,30.4,30.4,0,0,1,2.929,5.758l-1.432,5.017s-.228.812-.477,1.646c-.264.805-.534,1.618-.534,1.618s-.7,2.024-1.375,4.055c-.321,1.033-.748,2-1.04,2.765-.3.741-.492,1.233-.492,1.233-.7-1.062-1.361-2.181-1.867-3.057A6.425,6.425,0,0,0,292.9,197.5a6.288,6.288,0,0,0-.855-2.345c-2.152-3.62-10.647-7.818-12.991-8.794,0,.563.036,1.518.093,2.7.085,1.176.185,2.587.3,4.062a20.567,20.567,0,0,0,1.646,7.076,7.619,7.619,0,0,0,7.768,3.791,29.4,29.4,0,0,1,2.045,6.15l-2.159,4.739-.249.556c-.164.356-.406.862-.72,1.454-.606,1.2-1.425,2.793-2.245,4.383-.8,1.6-1.76,3.114-2.4,4.29-.67,1.169-1.126,1.938-1.126,1.938-.52-1.176-1-2.394-1.375-3.342a7.887,7.887,0,0,0,2.608-2.594,6.048,6.048,0,0,0,.214-5.188c-1.39-3.87-9.221-9.457-11.338-10.818-.086.52-.185,1.432-.3,2.558-.15,1.112-.314,2.43-.413,3.813-.135,2.779-.285,5.708.42,7.618a7.606,7.606,0,0,0,7.062,5.024,25.994,25.994,0,0,1,.955,6.378s-.7,1.1-1.4,2.195c-.356.549-.7,1.1-1,1.5l-.463.663-1.981,2.786v.007l-.007-.007s-1.226,1.76-2.58,3.421c-1.311,1.682-2.637,3.364-2.637,3.364-.356-1.24-.663-2.516-.891-3.506a7.964,7.964,0,0,0,2.323-1.525,6.452,6.452,0,0,0,1.1-1.354,5.979,5.979,0,0,0,.627-1.9,6.785,6.785,0,0,0-.121-2.508c-.82-4.041-7.682-10.711-9.585-12.364-.171.513-.4,1.475-.748,2.622-.321,1.133-.691,2.5-.983,3.927-.257,1.326-.52,2.644-.677,3.891a11.038,11.038,0,0,0,.036,3.342,7.687,7.687,0,0,0,6.243,6.036,27.374,27.374,0,0,1,0,6.435l-1.71,1.967c-.876.976-1.8,1.9-1.8,1.9v-.007s-.606.641-1.532,1.618c-.463.492-1.012,1.062-1.589,1.66-.606.577-1.247,1.2-1.9,1.817-1.3,1.226-2.573,2.494-3.592,3.371s-1.7,1.461-1.7,1.461c-.128-1.268-.2-2.558-.249-3.577a7.2,7.2,0,0,0,3.235-1.689,5.82,5.82,0,0,0,1.839-4.867c-.228-4.176-5.836-11.837-7.426-13.754a63.11,63.11,0,0,0-2.658,5.822,20.321,20.321,0,0,0-1.938,7.376,7.573,7.573,0,0,0,5.145,6.97,32,32,0,0,1-1.033,6.385l-4.09,3.214s-.684.534-1.347,1.062c-.7.5-1.4.983-1.4.983s-1.739,1.247-3.492,2.487c-.869.634-1.789,1.169-2.459,1.625-.677.428-1.126.72-1.126.72.057-1.276.178-2.573.264-3.577a6.174,6.174,0,0,0,6.007-5.708c.385-4.19-4.041-12.585-5.323-14.751-.342.463-.9,1.247-1.539,2.252s-1.361,2.2-2.145,3.449a20.942,20.942,0,0,0-2.836,6.7,7.638,7.638,0,0,0,4.069,7.639,28.019,28.019,0,0,1-1.96,6.164l-4.511,2.6-.014-.007s-.755.463-1.96,1.04c-1.2.613-2.794,1.432-4.368,2.266-1.618.784-3.278,1.468-4.482,2.052-1.226.534-2.045.912-2.045.912.278-1.254.584-2.537.841-3.52a7.829,7.829,0,0,0,3.62-.584,5.93,5.93,0,0,0,3.235-4.083c1.133-3.962-1.917-13.055-2.829-15.4-.385.392-1,1.076-1.767,1.9s-1.668,1.774-2.551,2.85c-1.739,2.174-3.6,4.425-4.119,6.407a7.607,7.607,0,0,0,2.758,8.224,25.972,25.972,0,0,1-2.979,5.708l-2.416.962c-.606.249-1.219.449-1.682.613s-.784.264-.784.264v.007l-3.235,1.09-1.261.428c-.763.264-1.81.527-2.829.827-2.074.592-4.119,1.154-4.119,1.154.456-1.2.948-2.409,1.347-3.364a7.917,7.917,0,0,0,2.772.15,5.311,5.311,0,0,0,3.314-1.625,6.784,6.784,0,0,0,1.382-2.088c.834-1.91.884-5.174.606-8.309a63.834,63.834,0,0,0-1.1-7.347c-.877.727-3.071,2.345-5.238,4.3-.991.912-1.981,1.817-2.829,2.736a10.987,10.987,0,0,0-1.945,2.729,7.693,7.693,0,0,0,1.5,8.552,27.01,27.01,0,0,1-3.784,5.209s-1.261.285-2.53.563c-.271.078-.527.121-.777.171-8.951,1-24.35,1.9-24.35,1.9s-17.246-.52-25.647-1.632c0,0-.328-.057-.805-.15s-1.126-.178-1.76-.342c-1.276-.306-2.537-.6-2.537-.6a26.469,26.469,0,0,1-3.777-5.209,7.612,7.612,0,0,0,1.511-8.537,10.544,10.544,0,0,0-1.924-2.751c-.834-.891-1.831-1.8-2.808-2.736-2.166-1.96-4.354-3.577-5.238-4.3a63,63,0,0,0-1.126,7.34c-.271,3.136-.235,6.407.591,8.3a6.967,6.967,0,0,0,1.368,2.109,5.294,5.294,0,0,0,3.314,1.625,8.232,8.232,0,0,0,2.786-.135c.385.941.891,2.159,1.333,3.371,0,0-2.052-.591-4.119-1.183-1.033-.3-2.074-.563-2.829-.834s-1.261-.42-1.261-.42L117.5,288.77s-.185-.057-.442-.143c-.128-.043-.278-.1-.442-.143-.449-.157-1.012-.356-1.568-.584-1.219-.485-2.43-.969-2.43-.969a26.734,26.734,0,0,1-2.95-5.715,7.635,7.635,0,0,0,2.772-8.238c-.527-1.967-2.366-4.219-4.1-6.414-.877-1.069-1.782-2.052-2.544-2.85-.755-.827-1.375-1.518-1.746-1.9-.926,2.345-3.984,11.431-2.872,15.393a5.934,5.934,0,0,0,3.214,4.09,7.961,7.961,0,0,0,3.627.591c.249.976.556,2.259.827,3.52,0,0-.82-.385-2.045-.934-1.2-.57-2.858-1.261-4.461-2.067-1.575-.805-3.178-1.639-4.361-2.238-1.2-.606-1.981-1.062-1.981-1.062L91.48,276.5a28.625,28.625,0,0,1-1.938-6.164,7.606,7.606,0,0,0,4.083-7.639A20.434,20.434,0,0,0,90.817,256c-.784-1.247-1.532-2.451-2.131-3.456-.648-1-1.2-1.789-1.532-2.259-1.3,2.166-5.737,10.54-5.366,14.751a6.207,6.207,0,0,0,.684,2.38,6.449,6.449,0,0,0,5.3,3.335c.093,1,.2,2.295.264,3.563,0,0-.463-.3-1.126-.72s-1.589-.976-2.459-1.618c-1.739-1.261-3.478-2.5-3.478-2.5s-.713-.492-1.4-.983c-.67-.534-1.354-1.055-1.354-1.055l-4.09-3.228a31.1,31.1,0,0,1-1-6.4,7.618,7.618,0,0,0,5.167-6.941,20.967,20.967,0,0,0-1.931-7.376c-1.04-2.594-2.138-4.924-2.644-5.858-1.611,1.945-7.233,9.571-7.468,13.754a5.777,5.777,0,0,0,1.839,4.853,6.858,6.858,0,0,0,3.221,1.71c-.057,1.019-.135,2.3-.271,3.577,0,0-.663-.592-1.689-1.475-1-.877-2.266-2.145-3.563-3.371-.648-.627-1.3-1.254-1.9-1.831-.57-.6-1.119-1.169-1.575-1.653-.934-.976-1.532-1.625-1.532-1.625H60.78s-.912-.926-1.789-1.9l-1.7-1.974a27.378,27.378,0,0,1,.007-6.435,7.639,7.639,0,0,0,6.264-6.022,11.224,11.224,0,0,0,.05-3.342c-.164-1.226-.42-2.565-.677-3.877-.292-1.44-.656-2.808-.976-3.948s-.556-2.1-.748-2.637c-1.881,1.66-8.772,8.323-9.613,12.364a6.438,6.438,0,0,0-.107,2.5,5.3,5.3,0,0,0,.606,1.9,6.453,6.453,0,0,0,1.1,1.382,8.711,8.711,0,0,0,2.323,1.525c-.235.983-.549,2.259-.9,3.492,0,0-1.325-1.675-2.637-3.356-1.354-1.66-2.573-3.435-2.573-3.435l-1.974-2.793-.47-.67c-.292-.392-.656-.934-.991-1.489-.706-1.1-1.4-2.181-1.4-2.181a26.114,26.114,0,0,1,.969-6.385,7.625,7.625,0,0,0,7.084-5.031c.705-1.881.57-4.824.428-7.6-.086-1.382-.249-2.7-.406-3.813-.093-1.119-.2-2.024-.278-2.565-2.117,1.368-9.963,6.934-11.381,10.789a6.047,6.047,0,0,0,.221,5.2,7.8,7.8,0,0,0,2.594,2.594c-.363.948-.877,2.174-1.4,3.328,0,0-.435-.755-1.1-1.931s-1.6-2.687-2.394-4.283c-.82-1.6-1.632-3.185-2.245-4.4-.314-.584-.542-1.1-.7-1.454s-.249-.563-.249-.563H35.71l-2.138-4.739a29.531,29.531,0,0,1,2.038-6.136,7.64,7.64,0,0,0,7.8-3.8,20.76,20.76,0,0,0,1.653-7.055c.114-1.475.221-2.872.314-4.055.064-1.183.093-2.152.093-2.722-2.323.991-10.839,5.167-13.005,8.772a6.369,6.369,0,0,0-.862,2.359,6.439,6.439,0,0,0,2.345,5.787c-.513.877-1.19,1.988-1.881,3.05,0,0-.2-.506-.492-1.254s-.713-1.717-1.033-2.758c-.684-2.024-1.361-4.055-1.361-4.055s-.271-.812-.556-1.625c-.214-.805-.456-1.632-.456-1.632v-.021l-1.411-5.017a31.139,31.139,0,0,1,2.943-5.758,7.607,7.607,0,0,0,8.266-2.573,20.83,20.83,0,0,0,2.779-7.1c.634-2.679,1.19-5.224,1.318-6.271-2.444.613-11.48,3.478-14.167,6.727a6.269,6.269,0,0,0,.257,8.295c-.656.77-1.468,1.767-2.323,2.722,0,0-.185-.877-.5-2.181-.335-1.311-.577-3.079-.912-4.839-.292-1.76-.634-3.52-.763-4.86-.171-1.333-.278-2.216-.278-2.216v.007s-.164-1.3-.335-2.594c-.086-.648-.114-1.3-.157-1.782s-.064-.827-.064-.827a30.259,30.259,0,0,1,3.8-5.188,7.609,7.609,0,0,0,8.58-1.183c1.461-1.3,2.736-3.791,3.756-6.221a52.865,52.865,0,0,0,2.459-6.35c-2.5.235-11.872,1.589-15.015,4.354a7.527,7.527,0,0,0-1.6,1.96,6.776,6.776,0,0,0,.477,6.264c-.77.648-1.76,1.482-2.751,2.3,0,0-.036-.527-.093-1.326-.021-.805-.05-1.874-.064-2.936-.05-2.159-.114-4.3-.114-4.3l.107-3.413.057-2.6c.014-1.318.143-2.608.143-2.608a29.264,29.264,0,0,1,4.525-4.582,7.607,7.607,0,0,0,8.644.071c1.689-1.112,3.442-3.556,4.824-5.908a53.726,53.726,0,0,0,3.185-5.573c-2.508-.15-11.979-.2-15.514,2.081a5.7,5.7,0,0,0-2.829,4.326,7.752,7.752,0,0,0,.5,3.627c-.855.542-1.931,1.24-3.029,1.9,0,0,.057-.9.178-2.238.185-1.333.413-3.107.641-4.881.185-1.782.527-3.535.77-4.853s.385-2.2.385-2.2v-.007s.064-.306.15-.805c.086-.47.185-1.119.356-1.746.3-1.276.577-2.544.577-2.544a26.419,26.419,0,0,1,5.216-3.784,7.62,7.62,0,0,0,8.552,1.511,11.11,11.11,0,0,0,2.722-1.924c.919-.848,1.817-1.824,2.751-2.815,1.953-2.166,3.563-4.368,4.3-5.245a62.019,62.019,0,0,0-7.347-1.119c-3.136-.285-6.392-.228-8.3.591a7.274,7.274,0,0,0-2.1,1.382,5.311,5.311,0,0,0-1.625,3.314,8.513,8.513,0,0,0,.135,2.772c-.934.4-2.166.9-3.364,1.354,0,0,.591-2.052,1.162-4.126.306-1.033.584-2.067.834-2.829s.442-1.268.442-1.268l1.1-3.242s.086-.264.228-.656c.05-.15.093-.3.15-.442a2.721,2.721,0,0,1,.093-.257c.107-.356.249-.727.4-1.09.485-1.211.962-2.437.962-2.437a26.522,26.522,0,0,1,5.708-2.95,7.669,7.669,0,0,0,8.231,2.779c3.848-1.162,9.549-7.005,11.16-8.43-2.33-.934-11.423-3.976-15.386-2.851a5.945,5.945,0,0,0-4.09,3.221,7.917,7.917,0,0,0-.577,3.62c-.991.249-2.259.57-3.527.827,0,0,.363-.805.919-2.031s1.268-2.865,2.067-4.475c.827-1.582,1.632-3.178,2.245-4.361.6-1.211,1.048-1.981,1.048-1.981l2.615-4.518a29.845,29.845,0,0,1,6.157-1.96,7.628,7.628,0,0,0,7.646,4.09,20.1,20.1,0,0,0,6.67-2.829c1.276-.777,2.466-1.525,3.463-2.131,1.012-.648,1.81-1.2,2.259-1.532-2.159-1.29-10.54-5.73-14.744-5.359a6.208,6.208,0,0,0-5.708,6.015c-1.019.086-2.295.2-3.577.271,0,0,.292-.463.727-1.133s.983-1.611,1.625-2.451c1.226-1.76,2.473-3.5,2.473-3.5l.991-1.4c.52-.684,1.062-1.354,1.062-1.354L53.1,65.277v-.007L54.894,63a31.312,31.312,0,0,1,6.392-1.019,7.589,7.589,0,0,0,6.955,5.159A20.471,20.471,0,0,0,75.61,65.2a62.97,62.97,0,0,0,5.844-2.651c-1.938-1.589-9.571-7.2-13.768-7.44a5.756,5.756,0,0,0-4.839,1.846,6.851,6.851,0,0,0-1.7,3.214c-1-.043-2.309-.135-3.585-.257,0,0,.6-.67,1.475-1.682s2.145-2.273,3.371-3.585c.62-.634,1.226-1.3,1.817-1.91.6-.57,1.183-1.112,1.653-1.568.969-.926,1.632-1.546,1.632-1.546s.926-.912,1.888-1.8c.991-.834,1.974-1.7,1.974-1.7a26.633,26.633,0,0,1,6.435.007,7.634,7.634,0,0,0,6.029,6.235,10.854,10.854,0,0,0,3.356.05c1.226-.157,2.558-.42,3.877-.663,1.432-.314,2.8-.67,3.927-.991,1.176-.328,2.109-.577,2.637-.748-1.668-1.9-8.323-8.765-12.364-9.6a6.939,6.939,0,0,0-2.508-.114,5.494,5.494,0,0,0-1.9.627,6.338,6.338,0,0,0-1.368,1.1,8.324,8.324,0,0,0-1.518,2.323c-.991-.228-2.273-.542-3.5-.884,0,0,1.675-1.311,3.356-2.637,1.66-1.375,3.421-2.58,3.421-2.58l2.8-1.988.67-.463c.178-.135.385-.278.606-.428a.992.992,0,0,0,.135-.107c.107-.057.221-.143.328-.207a1.678,1.678,0,0,0,.164-.1l-.007-.007c.1-.057.171-.107.257-.157,1.09-.713,2.2-1.4,2.2-1.4a26.363,26.363,0,0,1,6.357.955A7.644,7.644,0,0,0,99.8,41.418c1.9.713,4.824.549,7.625.428,1.375-.093,2.694-.257,3.784-.4,1.14-.107,2.038-.221,2.565-.292-1.333-2.131-6.927-9.955-10.789-11.345a5.931,5.931,0,0,0-5.2.207,7.615,7.615,0,0,0-2.594,2.6c-.948-.385-2.166-.877-3.342-1.4l1.945-1.1c1.169-.656,2.694-1.618,4.29-2.409.905-.463,8.245-4.326,14.431-7.589a6.907,6.907,0,0,0,8.145,2.223c3.919-1.568,9.592-9.157,11.017-11.245-2.473-.463-11.83-1.988-15.721-.371-4.71,1.953-4.454,6.485-4.247,7.946-2.979,1.2-5.829,2.345-6.834,2.8-1.639.755-8.38,2.986-8.38,2.986.192-1.268.463-2.565.705-3.57a8.835,8.835,0,0,0,3.763-.834,6.72,6.72,0,0,0,3.663-4.062c.763-2.017.734-5.395.542-8.559-.228-3.171-.67-6.178-.9-7.433-.591.392-1.568,1.069-2.736,1.931s-2.451,2-3.734,3.15c-2.58,2.309-4.91,5.124-5.58,7.2-1.461,4.532,1.653,7.041,3.185,8.067-.328.9-.763,2-1.2,3.128a24.556,24.556,0,0,1-1.34,3s-.556.328-1.418.82-2,1.1-3.093,1.831l-4.39,2.822a8.349,8.349,0,0,0-.777.5c-.442.321-1.055.741-1.66,1.162-1.19.855-2.387,1.71-2.387,1.71l-1.069.77c0-.734.028-1.461.057-2.152.029-.534.064-1.033.1-1.482a8.55,8.55,0,0,0,3.606-1.368,6.948,6.948,0,0,0,3.014-4.575c.841-4.219-1.945-13.312-2.736-15.749-.534.463-1.411,1.276-2.43,2.295-1,1.076-2.117,2.337-3.214,3.7-2.223,2.637-4.062,5.794-4.44,7.924-.036.278-.071.5-.093.741-.321,4.155,2.851,6.022,4.447,6.77a57.517,57.517,0,0,1-1.618,6.442s-.62.506-1.582,1.226-2.159,1.8-3.364,2.843c-1.219,1.062-2.451,2.088-3.328,2.908s-1.461,1.375-1.461,1.375h.007s-1.3,1.247-2.608,2.487c-.663.6-1.276,1.261-1.739,1.76s-.777.805-.777.805c-.228-1.268-.392-2.594-.477-3.642a9.123,9.123,0,0,0,3.371-1.9,7.07,7.07,0,0,0,2.195-5.031c.2-4.219-4.119-12.827-5.3-15.115a71.2,71.2,0,0,0-4.582,6.841c-1.632,3.071-3.1,6.335-3.057,8.566.043,4.8,3.756,6.207,5.516,6.7a43.78,43.78,0,0,1-.549,6.606s-.449.47-1.069,1.219c-.648.741-1.5,1.732-2.352,2.715-.877.976-1.725,1.974-2.3,2.758-.627.77-1.012,1.276-1.012,1.276h-.007s-.912,1.162-1.817,2.323c-.463.57-.9,1.162-1.226,1.625l-.527.741-.755,1.069c-.242-.691-.442-1.4-.627-2.074-.143-.527-.264-1.026-.378-1.447A10.472,10.472,0,0,0,48,62.875a7.138,7.138,0,0,0,1.418-5.33c-.413-4.19-5.95-12.058-7.454-14.124a60.394,60.394,0,0,0-3.527,7.426c-1.183,3.285-2.166,6.7-1.774,8.929.036.249.1.485.143.72,1.033,4.1,4.589,4.881,6.314,5.088a47.928,47.928,0,0,1,.428,6.606s-1.739,2.7-3.47,5.395c-1.611,2.779-3.214,5.551-3.214,5.551s-.214.406-.542,1-.72,1.39-1.14,2.188c-.82,1.6-1.646,3.2-1.646,3.2-.577-1.119-1.112-2.33-1.518-3.285a8.753,8.753,0,0,0,2.558-2.879,6.918,6.918,0,0,0,.591-5.459c-1.2-4.133-7.832-10.91-9.67-12.727-.257.663-.656,1.789-1.1,3.171-.392,1.4-.805,3.057-1.162,4.746-.763,3.371-.955,7.012-.292,9.1,1.468,4.525,5.452,4.725,7.312,4.668A61.231,61.231,0,0,1,31.776,93.3s-.271.577-.67,1.489-.962,2.081-1.425,3.307c-.955,2.423-1.917,4.853-1.917,4.853v-.007a9.04,9.04,0,0,0-.321.862c-.185.52-.413,1.226-.656,1.931-.47,1.39-.941,2.786-.941,2.786l-.42,1.24c-.435-.6-.834-1.19-1.219-1.782-.278-.449-.534-.869-.777-1.24a8.708,8.708,0,0,0,2.109-3.25,6.884,6.884,0,0,0-.228-5.452c-1.8-3.919-9.407-9.67-11.473-11.16-.748,2.744-2.059,13.29,0,17.2.114.221.242.449.363.641,2.188,3.563,5.836,3.214,7.568,2.872a57.284,57.284,0,0,1,2.487,6.171s-.221.777-.549,1.917c-.356,1.169-.713,2.722-1.069,4.29s-.713,3.128-.991,4.29c-.214,1.183-.363,1.981-.363,1.981h.007s-.321,1.767-.641,3.542c-.356,1.774-.542,3.563-.542,3.563-.919-.905-1.846-1.888-2.523-2.665a8.84,8.84,0,0,0,1.625-3.535,7.333,7.333,0,0,0-1.19-5.366c-2.323-3.513-10.868-7.953-13.176-9.107a77.238,77.238,0,0,0,.3,8.231c.47,3.463,1.276,6.969,2.558,8.751,2.893,3.848,6.7,2.8,8.4,2.159a40.281,40.281,0,0,1,3.47,5.673s-.086.641-.185,1.611c-.071.991-.171,2.288-.285,3.585-.093,1.3-.185,2.608-.271,3.57L18.8,147.9l-.164,5.886.036,1.311c-.591-.413-1.2-.877-1.746-1.318-.406-.335-.784-.648-1.126-.941a8.8,8.8,0,0,0,1.062-3.727,7.322,7.322,0,0,0-1.945-5.117c-2.822-3.15-11.958-6.271-14.388-7.062a69.159,69.159,0,0,0,1.525,8.088c.962,3.356,2.3,6.692,3.805,8.252a5.658,5.658,0,0,0,.527.5,6.791,6.791,0,0,0,8.1.392,44.874,44.874,0,0,1,4.269,5.1s.043.812.057,2.01c.093,1.19.214,2.793.335,4.39s.207,3.207.385,4.39l.249,2H19.8s.214,1.782.442,3.585c.264,1.76.606,3.542.606,3.542-1.154-.563-2.309-1.226-3.214-1.753.52-1.76,1.425-5.644-2.352-8.6C12.015,166.163,2.53,164.581,0,164.2a58.624,58.624,0,0,0,2.815,7.725c1.511,3.15,3.228,6.243,5.088,7.532,3.905,2.793,7.247.62,8.68-.52a43.191,43.191,0,0,1,5,4.347s.577,2.551,1.162,5.1c.271,1.276.577,2.537.862,3.485s.456,1.568.456,1.568.392,1.418.8,2.829c.192.713.4,1.418.591,1.938s.285.877.285.877l.428,1.24c-.691-.214-1.411-.47-2.059-.705-.513-.207-.976-.4-1.382-.563a10,10,0,0,0-.143-3.87,7.079,7.079,0,0,0-3.449-4.276c-3.642-2.131-13.255-2.309-15.82-2.309a59.6,59.6,0,0,0,3.934,7.233c1.967,2.893,4.133,5.715,6.164,6.7a5.657,5.657,0,0,0,.677.314c3.912,1.582,6.642-.848,7.825-2.117a44.558,44.558,0,0,1,5.573,3.549s1.19,2.986,2.352,5.972c.606,1.489,1.3,2.929,1.782,4.041.492,1.083.82,1.824.82,1.824l.007-.007s.178.428.456,1.019c.285.634.713,1.425,1.119,2.216.82,1.611,1.646,3.214,1.646,3.214-1.261-.178-2.558-.456-3.585-.706a8.586,8.586,0,0,0-.82-3.748,6.767,6.767,0,0,0-4.062-3.684c-2.038-.741-5.395-.734-8.552-.549-3.171.228-6.178.67-7.426.9.385.584,1.062,1.575,1.924,2.729s2,2.459,3.15,3.756c2.28,2.565,5.1,4.9,7.176,5.587,4.539,1.454,7.048-1.653,8.074-3.193.9.328,2,.755,3.114,1.2a24.73,24.73,0,0,1,3.014,1.354s.321.57.805,1.418c.513.841,1.112,2,1.846,3.093,1.4,2.195,2.8,4.4,2.8,4.4s.2.3.492.777c.328.449.755,1.048,1.176,1.639.862,1.219,1.7,2.416,1.7,2.416l.763,1.076c-.72-.007-1.454-.021-2.145-.071-.534-.043-1.026-.064-1.482-.1a8.584,8.584,0,0,0-1.368-3.606,7.031,7.031,0,0,0-4.568-3.029c-4.226-.841-13.319,1.924-15.763,2.722.477.52,1.283,1.411,2.3,2.43,1.069.991,2.352,2.124,3.691,3.221,2.637,2.223,5.787,4.069,7.924,4.461.249.036.492.05.734.085,4.162.321,6.029-2.836,6.77-4.433a60.206,60.206,0,0,1,6.456,1.618s.485.634,1.233,1.575c.72.976,1.774,2.166,2.815,3.385,1.069,1.2,2.1,2.43,2.893,3.321.834.869,1.4,1.461,1.4,1.461v-.014l2.473,2.615c.613.67,1.261,1.29,1.753,1.767.5.456.82.777.82.777-1.276.221-2.6.363-3.649.463a9.018,9.018,0,0,0-1.9-3.385,7.248,7.248,0,0,0-5.031-2.2c-4.212-.207-12.849,4.1-15.122,5.273a66.44,66.44,0,0,0,6.834,4.589c3.086,1.66,6.328,3.107,8.559,3.093,4.81-.05,6.214-3.748,6.706-5.523a43.926,43.926,0,0,1,6.613.563s.463.449,1.211,1.083,1.725,1.5,2.708,2.366c.976.841,1.974,1.71,2.758,2.3s1.283,1.019,1.283,1.019h-.014s1.162.9,2.316,1.817c.57.463,1.169.905,1.625,1.211.442.335.748.527.748.527l1.069.784c-.691.214-1.411.42-2.081.613-.527.135-1,.264-1.447.371a9.7,9.7,0,0,0-2.387-3.05,7.045,7.045,0,0,0-5.309-1.432c-4.19.406-12.079,5.915-14.153,7.433a61.5,61.5,0,0,0,7.433,3.535c3.285,1.183,6.692,2.188,8.915,1.789a5.249,5.249,0,0,0,.727-.143c4.1-1.033,4.882-4.575,5.1-6.292a46.7,46.7,0,0,1,6.606-.428S86,277.3,88.7,279.05c2.765,1.611,5.537,3.214,5.537,3.214h.014l.976.556c.6.306,1.4.72,2.209,1.133,1.6.82,3.207,1.639,3.207,1.639-1.14.584-2.352,1.126-3.3,1.525a8.764,8.764,0,0,0-2.893-2.565,6.836,6.836,0,0,0-5.437-.591c-4.14,1.2-10.932,7.825-12.749,9.656.67.249,1.8.663,3.157,1.1,1.4.406,3.064.812,4.76,1.169,3.364.763,7,.969,9.093.314,4.532-1.475,4.739-5.459,4.668-7.3a58.973,58.973,0,0,1,6.471-1.532s.6.271,1.489.67,2.067.976,3.3,1.418c2.423.976,4.853,1.931,4.853,1.931a8.441,8.441,0,0,0,.855.328c.534.178,1.226.413,1.924.648,1.39.477,2.786.948,2.786.948l1.233.42c-.563.435-1.183.841-1.767,1.2-.456.285-.869.542-1.254.784a8.53,8.53,0,0,0-3.221-2.1,6.953,6.953,0,0,0-5.48.228c-3.912,1.782-9.663,9.385-11.167,11.445,2.751.755,13.29,2.074,17.2.021a5.628,5.628,0,0,0,.656-.363c3.556-2.181,3.2-5.829,2.879-7.568a61.669,61.669,0,0,1,6.157-2.473l1.945.542c1.147.356,2.708.713,4.261,1.069,1.568.378,3.136.741,4.311,1,1.176.214,1.967.349,1.967.349a124.238,124.238,0,0,0,16.219,1.881c.349.1.7.2,1.14.335-19.4,6.264-24.486,18.379-24.486,18.379l8.259.021c2.359-6.984,14.374-12.649,23.2-15.977,8.822,3.342,20.83,9.05,23.182,16.027l8.252.014s-5.038-12.143-24.443-18.45c.2-.064.328-.1.513-.157,6.015-.371,15.642-1.211,22.148-2.9v-.014c.6-.135,1.219-.278,1.839-.413,1.568-.363,3.128-.713,4.276-1.076,1.162-.335,1.938-.535,1.938-.535a57.436,57.436,0,0,1,6.171,2.5c-.342,1.717-.705,5.366,2.851,7.561.207.114.42.242.634.356,3.934,2.059,14.488.762,17.224.014-1.5-2.067-7.24-9.67-11.138-11.466a7.074,7.074,0,0,0-5.487-.242,8.734,8.734,0,0,0-3.221,2.1c-.378-.228-.805-.492-1.261-.791-.577-.363-1.176-.791-1.767-1.2l1.247-.42s1.4-.47,2.8-.941c.684-.235,1.383-.463,1.91-.641a9.14,9.14,0,0,0,.862-.335s2.43-.941,4.86-1.9c1.226-.463,2.409-1.012,3.292-1.418s1.5-.67,1.5-.67a64.207,64.207,0,0,1,6.464,1.532c-.071,1.86.128,5.858,4.653,7.326,2.088.663,5.715.463,9.093-.285,1.7-.349,3.356-.755,4.76-1.154,1.368-.463,2.494-.848,3.157-1.09-1.81-1.853-8.587-8.487-12.728-9.685a6.733,6.733,0,0,0-5.437.577,8.729,8.729,0,0,0-2.893,2.544c-.948-.4-2.152-.926-3.278-1.511,0,0,1.6-.827,3.2-1.646.812-.406,1.6-.819,2.209-1.126.577-.335.983-.556.983-.556l5.544-3.214c2.708-1.717,5.4-3.449,5.4-3.449a46.676,46.676,0,0,1,6.606.42c.214,1.739.991,5.288,5.081,6.328a5.465,5.465,0,0,0,.727.143c2.231.392,5.623-.6,8.922-1.774a60.971,60.971,0,0,0,7.447-3.513c-2.074-1.518-9.948-7.055-14.138-7.468a7.041,7.041,0,0,0-5.316,1.425,9.728,9.728,0,0,0-2.387,3.05c-.442-.128-.919-.257-1.447-.4-.677-.178-1.383-.385-2.081-.62l1.076-.755.748-.534c.456-.314,1.055-.741,1.625-1.219,1.154-.9,2.309-1.824,2.309-1.824l1.283-1c.784-.577,1.782-1.44,2.758-2.3.983-.841,1.974-1.71,2.722-2.352s1.226-1.083,1.226-1.076a43.6,43.6,0,0,1,6.592-.549c.5,1.774,1.888,5.48,6.7,5.537,2.223.021,5.487-1.411,8.566-3.05a73.232,73.232,0,0,0,6.834-4.582c-2.273-1.2-10.875-5.53-15.1-5.323a7.211,7.211,0,0,0-5.024,2.195,9.027,9.027,0,0,0-1.91,3.378c-1.04-.1-2.387-.249-3.642-.477,0,0,.321-.314.805-.791s1.147-1.069,1.76-1.725c1.233-1.311,2.494-2.615,2.494-2.615s.549-.577,1.382-1.432c.805-.9,1.846-2.124,2.893-3.328,1.055-1.233,2.117-2.416,2.836-3.378.748-.962,1.24-1.575,1.24-1.575a60.624,60.624,0,0,1,6.456-1.618c.741,1.618,2.594,4.775,6.763,4.454.228-.021.47-.043.734-.086,2.145-.378,5.295-2.209,7.939-4.44,1.333-1.076,2.622-2.223,3.684-3.2,1.033-1.026,1.846-1.9,2.309-2.444-2.437-.791-11.523-3.563-15.749-2.751a7,7,0,0,0-4.575,3.014,8.528,8.528,0,0,0-1.375,3.6q-.673.053-1.475.107c-.7.043-1.432.064-2.159.064l.777-1.069s.848-1.2,1.7-2.394c.428-.606.855-1.2,1.169-1.653s.506-.77.506-.77v-.014L284.1,231c.727-1.083,1.333-2.259,1.824-3.086l.827-1.418a24.99,24.99,0,0,1,3.022-1.34c1.1-.435,2.216-.869,3.121-1.211,1.019,1.554,3.513,4.653,8.053,3.2,2.088-.663,4.9-2.986,7.2-5.566,1.154-1.283,2.28-2.565,3.157-3.72s1.539-2.152,1.931-2.751c-1.254-.221-4.262-.663-7.433-.884-3.15-.221-6.521-.228-8.552.506a6.854,6.854,0,0,0-4.076,3.663,8.774,8.774,0,0,0-.834,3.763c-1.012.235-2.316.506-3.57.691,0,0,.827-1.611,1.653-3.2.406-.812.819-1.6,1.1-2.216s.47-1.026.47-1.026v.014s.335-.734.834-1.831,1.19-2.544,1.782-4.026c1.183-3,2.366-5.972,2.366-5.972a44.771,44.771,0,0,1,5.594-3.535c1.19,1.283,3.9,3.691,7.818,2.138a6.826,6.826,0,0,0,.684-.306c2.017-.983,4.2-3.8,6.186-6.692a58.446,58.446,0,0,0,3.941-7.219c-2.558,0-12.179.143-15.82,2.273a6.984,6.984,0,0,0-3.471,4.283,9.9,9.9,0,0,0-.135,3.855c-.428.164-.9.356-1.4.549-.648.242-1.354.492-2.052.706l.428-1.247s.107-.328.3-.862.4-1.226.584-1.938c.4-1.418.82-2.836.82-2.836h-.007s.171-.627.442-1.568c.292-.941.613-2.209.891-3.485" transform="translate(0 0.002)" fill="url(#linear-gradient)"/>
    </g>
  </g>
</svg>
